<?xml version="1.0" encoding="UTF-8" standalone="no"?>
<!-- Created with Inkscape (http://www.inkscape.org/) -->

<svg
   width="512"
   height="512"
   viewBox="0 0 135.46667 135.46666"
   version="1.1"
   id="svg1"
   xml:space="preserve"
   sodipodi:docname="PH-favicon-wht-512x512.svg"
   inkscape:version="1.4.3 (0d15f75, 2025-12-25)"
   inkscape:export-filename="PH-blk-logo.png"
   inkscape:export-xdpi="96"
   inkscape:export-ydpi="96"
   xmlns:inkscape="http://www.inkscape.org/namespaces/inkscape"
   xmlns:sodipodi="http://sodipodi.sourceforge.net/DTD/sodipodi-0.dtd"
   xmlns="http://www.w3.org/2000/svg"
   xmlns:svg="http://www.w3.org/2000/svg"><sodipodi:namedview
     id="namedview1"
     pagecolor="#505050"
     bordercolor="#ffffff"
     borderopacity="1"
     inkscape:showpageshadow="0"
     inkscape:pageopacity="0"
     inkscape:pagecheckerboard="1"
     inkscape:deskcolor="#505050"
     inkscape:document-units="px"
     inkscape:export-bgcolor="#ffffff00"
     showgrid="true"
     inkscape:zoom="0.31707873"
     inkscape:cx="160.84334"
     inkscape:cy="458.87657"
     inkscape:window-width="1658"
     inkscape:window-height="1052"
     inkscape:window-x="70"
     inkscape:window-y="33"
     inkscape:window-maximized="0"
     inkscape:current-layer="layer9"
     showguides="true"><inkscape:grid
       id="grid8"
       units="mm"
       originx="0"
       originy="0"
       spacingx="0.99999998"
       spacingy="1"
       empcolor="#0099e5"
       empopacity="0.30196078"
       color="#0099e5"
       opacity="0.14901961"
       empspacing="11"
       enabled="false"
       visible="false" /><inkscape:grid
       type="axonomgrid"
       id="grid105"
       units="px"
       originx="793.70081"
       originy="561.25983"
       spacingx="0.99999998"
       spacingy="1"
       empcolor="#ff0000"
       empopacity="0.30196078"
       color="#dee500"
       opacity="0.14901961"
       empspacing="52"
       dotted="false"
       gridanglex="22.4"
       gridanglez="34"
       enabled="false"
       visible="true" /><inkscape:grid
       type="axonomgrid"
       id="grid106"
       units="mm"
       originx="0"
       originy="0"
       spacingx="0.99999998"
       spacingy="1"
       empcolor="#0099e5"
       empopacity="0.30196078"
       color="#0099e5"
       opacity="0.14901961"
       empspacing="5"
       dotted="false"
       gridanglex="30"
       gridanglez="30"
       enabled="false"
       visible="true" /><inkscape:grid
       type="axonomgrid"
       id="grid107"
       units="mm"
       originx="0"
       originy="0"
       spacingx="0.99999998"
       spacingy="1"
       empcolor="#0099e5"
       empopacity="0.30196078"
       color="#0099e5"
       opacity="0.14901961"
       empspacing="5"
       dotted="false"
       gridanglex="30"
       gridanglez="30"
       enabled="false"
       visible="true" /><inkscape:grid
       type="modular"
       id="grid151"
       units="mm"
       originx="0"
       originy="0"
       spacingx="39.999999"
       spacingy="40.000001"
       empcolor="#0047cb"
       empopacity="0.30196078"
       color="#0099e5"
       opacity="0.14901961"
       empspacing="0"
       marginx="0"
       marginy="0"
       gapx="9.9999998"
       gapy="10"
       enabled="false"
       visible="true" /><inkscape:grid
       id="grid152"
       units="mm"
       originx="0"
       originy="0"
       spacingx="0.99999998"
       spacingy="1"
       empcolor="#0099e5"
       empopacity="0.30196078"
       color="#0099e5"
       opacity="0.14901961"
       empspacing="5"
       enabled="false"
       visible="true" /></sodipodi:namedview><defs
     id="defs1"><inkscape:path-effect
       effect="fillet_chamfer"
       id="path-effect17"
       is_visible="true"
       lpeversion="1"
       nodesatellites_param="F,0,0,1,0,0,0,1 @ F,0,0,1,0,0,0,1 @ F,0,0,1,0,0,0,1 @ F,0,0,1,0,0,0,1 @ F,0,0,1,0,0,0,1"
       radius="0"
       unit="px"
       method="auto"
       mode="F"
       chamfer_steps="1"
       flexible="false"
       use_knot_distance="true"
       apply_no_radius="true"
       apply_with_radius="true"
       only_selected="false"
       hide_knots="false" /><inkscape:path-effect
       effect="fillet_chamfer"
       id="path-effect16"
       is_visible="true"
       lpeversion="1"
       nodesatellites_param="F,0,0,1,0,0,0,1 @ F,0,0,1,0,0,0,1 @ F,0,0,1,0,0,0,1 @ F,0,0,1,0,0,0,1 @ F,0,0,1,0,0,0,1"
       radius="0"
       unit="px"
       method="auto"
       mode="F"
       chamfer_steps="1"
       flexible="false"
       use_knot_distance="true"
       apply_no_radius="true"
       apply_with_radius="true"
       only_selected="false"
       hide_knots="false" /><inkscape:path-effect
       effect="skeletal"
       id="path-effect22"
       is_visible="true"
       lpeversion="1"
       pattern="M 0,4.9921382 C 0,2.2364779 2.2364779,0 4.9921382,0 c 2.7556604,0 4.9921383,2.2364779 4.9921383,4.9921382 0,2.7556604 -2.2364779,4.9921383 -4.9921383,4.9921383 C 2.2364779,9.9842765 0,7.7477986 0,4.9921382 Z"
       copytype="single_stretched"
       prop_scale="1"
       scale_y_rel="false"
       spacing="0"
       normal_offset="0"
       tang_offset="0"
       prop_units="false"
       vertical_pattern="false"
       hide_knot="false"
       fuse_tolerance="0" /><inkscape:path-effect
       effect="skeletal"
       id="path-effect20"
       is_visible="true"
       lpeversion="1"
       pattern="M 0,4.9921382 C 0,2.2364779 2.2364779,0 4.9921382,0 c 2.7556604,0 4.9921383,2.2364779 4.9921383,4.9921382 0,2.7556604 -2.2364779,4.9921383 -4.9921383,4.9921383 C 2.2364779,9.9842765 0,7.7477986 0,4.9921382 Z"
       copytype="single_stretched"
       prop_scale="1"
       scale_y_rel="false"
       spacing="0"
       normal_offset="0"
       tang_offset="0"
       prop_units="false"
       vertical_pattern="false"
       hide_knot="false"
       fuse_tolerance="0" /><inkscape:path-effect
       effect="bspline"
       id="path-effect19"
       is_visible="true"
       lpeversion="1.3"
       weight="33.333333"
       steps="2"
       helper_size="0"
       apply_no_weight="true"
       apply_with_weight="true"
       only_selected="false"
       uniform="false" /></defs><g
     inkscape:groupmode="layer"
     id="layer3"
     inkscape:label="ROOF"
     style="display:inline"><path
       style="display:inline;fill:#ffffff;fill-opacity:1;stroke:#000000;stroke-width:0.531505;stroke-linecap:butt;stroke-linejoin:miter;stroke-dasharray:none;stroke-opacity:1"
       d="M 17.165204,46.973168 29.72968,41.678332 63.045696,54.400858 52.925016,60.323591 Z"
       id="path304-6-4-0-3-9-0"
       sodipodi:nodetypes="ccccc"
       inkscape:label="roof-1" /><path
       style="display:inline;fill:#ffffff;fill-opacity:1;stroke:#000000;stroke-width:0.531505;stroke-dasharray:none;stroke-opacity:1"
       d="M 104.1402,40.481411 86.734147,47.187044 70.320316,40.534512 87.283695,33.659235 Z"
       id="path237-1-1-7-2-9-2"
       inkscape:label="roof-4"
       sodipodi:nodetypes="ccccc" /><path
       style="display:inline;fill:#ffffff;fill-opacity:1;stroke:#000000;stroke-width:0.531505;stroke-linecap:butt;stroke-linejoin:miter;stroke-dasharray:none;stroke-opacity:1"
       d="m 119.23441,46.59035 -13.10005,-5.301866 -34.054144,13.114587 10.111752,5.92244 z"
       id="path219-0-3-8-7-1-4"
       sodipodi:nodetypes="ccccc"
       inkscape:label="roof-2" /><path
       style="display:inline;fill:#ffffff;fill-opacity:1;stroke:#000000;stroke-width:0.531505;stroke-dasharray:none;stroke-opacity:1"
       d="M 50.701944,32.935331 67.560719,39.768168 85.221845,32.824761 67.560719,25.676936 Z"
       id="path12-6-9-6-1-7-8"
       inkscape:label="roof-6"
       sodipodi:nodetypes="ccccc" /><path
       style="display:inline;fill:#ffffff;fill-opacity:1;fill-rule:nonzero;stroke:#000000;stroke-width:0.531505;stroke-dasharray:none;stroke-opacity:1"
       d="m 51.483522,48.16315 13.446413,5.134819 2.630784,-1.539756 c 0,0 2.788564,1.539756 2.788564,1.539756 L 83.915267,48.275896 67.560719,41.634375 Z"
       id="path306-8-8-6-0-2-39"
       inkscape:label="roof-3-mid"
       sodipodi:nodetypes="ccccccc" /><path
       style="display:inline;fill:#ffffff;fill-opacity:1;stroke:#000000;stroke-width:0.531505;stroke-dasharray:none;stroke-opacity:1"
       d="M 32.15251,40.78117 48.810528,47.142397 65.24249,40.707778 48.279114,33.832493 Z"
       id="path300-7-5-0-0-3-0"
       inkscape:label="roof-5"
       sodipodi:nodetypes="ccccc" /></g><g
     inkscape:groupmode="layer"
     id="layer13"
     inkscape:label="DOOR"><path
       style="display:inline;fill:#ffffff;fill-opacity:1;stroke:#000000;stroke-width:0.531505;stroke-dasharray:none;stroke-opacity:1"
       d="m 67.560738,54.302638 -13.837367,7.836021 v 55.886011 h 4.83657 c 0,0 -0.177545,-17.02695 0.140985,-25.535062 0.05316,-1.397489 0.970489,-3.164274 1.682619,-4.172958 1.165217,-1.650514 2.926293,-2.831035 3.217936,-2.982668 0.42964,-0.223325 3.48033,-1.943861 7.884436,-0.273288 1.15386,0.437673 2.423713,1.583072 3.114027,2.401947 1.660187,1.969506 2.044396,3.947034 2.178436,5.390429 0.04853,0.522686 0.04299,18.5123 0.08685,25.1716 h 4.528316 l 0.0048,-55.886011 z"
       id="path5"
       inkscape:label="outer-door" /><path
       id="path17-6-4-5-7-5-2"
       style="display:inline;fill:#ffffff;fill-opacity:1;stroke:#000000;stroke-width:0.531505;stroke-dasharray:none;stroke-opacity:1"
       d="m 67.552081,85.772959 c -0.146423,0.001 -0.292157,0.009 -0.436936,0.02409 -2.468826,0.251831 -4.489878,1.658084 -5.59124,3.586433 -1.101364,1.928349 -1.283098,4.378732 -1.283098,4.378732 v 24.262416 h 14.961252 c 0,0 0.07185,-21.428511 -0.03487,-24.1003 -0.05264,-1.317184 -0.361776,-3.303065 -1.726643,-5.024586 -1.354414,-1.708399 -3.692419,-3.148229 -5.888424,-3.126833 z m 4.395728,17.594131 c 0.683369,0 1.237332,0.57147 1.237332,1.27643 0,0.70496 -0.553963,1.27649 -1.237332,1.27649 -0.68336,0 -1.237323,-0.57153 -1.237323,-1.27649 0,-0.70496 0.553963,-1.27643 1.237323,-1.27643 z"
       inkscape:label="door-inner"
       sodipodi:nodetypes="ssscccssssssss" /></g><g
     inkscape:groupmode="layer"
     id="layer14"
     inkscape:label="OUTER-ROOF"><path
       style="display:inline;fill:#ffffff;fill-opacity:1;stroke:#000000;stroke-width:0.531505;stroke-linecap:butt;stroke-linejoin:miter;stroke-dasharray:none;stroke-opacity:1"
       d="m 67.560719,22.573335 63.812031,26.827514 0.052,-6.963771 -25.26322,-10.71682 -0.16896,-10.145057 -9.113078,0.02678 0.07787,6.21386 L 67.560719,15.345618 3.5631788,42.437095 v 7.149501 z"
       id="path8-6-5-7-1-5-27"
       sodipodi:nodetypes="ccccccccccc"
       inkscape:label="outer-roof" /><rect
       style="display:inline;fill:#ffffff;fill-opacity:1;stroke:#000000;stroke-width:0.531505;stroke-dasharray:none;stroke-opacity:1"
       id="rect19-9-4-9-7-8-3"
       width="12.788819"
       height="2.957056"
       x="95.030792"
       y="17.721811"
       inkscape:label="chimney"
       transform="matrix(0.99999536,-0.00304791,0.002864,0.9999959,0,0)" /></g><g
     inkscape:groupmode="layer"
     id="layer8"
     inkscape:label="RIGHT-H"><path
       style="display:inline;fill:#ffffff;fill-opacity:1;fill-rule:nonzero;stroke:#000000;stroke-width:0.531505;stroke-linecap:butt;stroke-linejoin:miter;stroke-dasharray:none;stroke-opacity:1"
       d="m 120.49865,47.593717 v 55.244753 l -10.19121,4.00155 V 82.984347 l -16.986443,6.021011 -9.54e-4,24.504932 -10.240596,4.02095 V 61.643744 l 10.240538,-3.845095 9.55e-4,19.890445 17.00435,-6.131489 -0.0179,-20.127824 z"
       id="path301-3-7-3-3-4-1-7"
       sodipodi:nodetypes="ccccccccccccc"
       inkscape:label="H-right" /><path
       id="path302-5-4-4-5-5-4-9"
       style="display:inline;fill:#ffffff;fill-opacity:1;stroke:#000000;stroke-width:0.531505;stroke-linecap:butt;stroke-linejoin:miter;stroke-dasharray:none;stroke-opacity:1"
       d="m 108.54186,52.083154 v 7.915142 l -5.73138,2.100382 -0.0182,-7.856741 z m -7.72238,2.899548 v 7.845595 l -5.728274,2.099214 -0.0057,-7.782234 z m 7.72238,6.859066 v 7.782821 l -5.73138,2.233815 v -7.933568 z m -7.72238,2.806685 -0.006,8.008018 -5.722469,1.946418 v -7.731461 z"
       inkscape:label="R-top-window"
       sodipodi:nodetypes="cccccccccccccccccccc" /><path
       id="path303-8-8-2-0-1-7-0"
       style="display:inline;fill:#ffffff;fill-opacity:1;stroke:#000000;stroke-width:0.531505;stroke-linecap:butt;stroke-linejoin:miter;stroke-dasharray:none;stroke-opacity:1"
       inkscape:label="R-window-frame"
       d="M 108.54186,85.268296 V 107.4962 l -13.450654,5.31157 V 89.884337 Z m -2.49047,4.040381 -3.24091,1.201113 v 3.930617 l 1.50083,-0.556082 1.74008,-0.627139 z m -5.23191,1.936502 -3.182884,1.17559 -0.02397,3.972928 3.206904,-1.216265 z m 5.23191,3.892202 -3.24091,1.24245 v 3.908519 l 3.24091,-1.195171 z m -5.23604,2.005409 -3.192988,1.237321 0.0048,3.808089 3.192538,-1.1729 z m 5.23604,4.07193 -3.24091,1.22857 v 4.26574 l 3.24091,-1.21795 z m -5.23191,1.98331 -3.206501,1.21552 0.0096,4.30061 3.197111,-1.23982 z"
       sodipodi:nodetypes="cccccccccccccccccccccccccccccccccccc" /><path
       id="path24"
       style="fill:#ffffff;fill-opacity:1;stroke:#000000;stroke-width:0.531505;stroke-dasharray:none;stroke-opacity:1"
       inkscape:label="garage-door"
       d="m 28.103182,91.542603 v 17.069037 l 23.971422,8.91542 v -17.36437 z m 1.595974,2.779566 9.047341,3.236435 -0.02127,3.613876 -9.047136,-3.271468 z m 11.531196,4.097492 9.047367,3.236449 -0.02127,3.61386 -9.047135,-3.27147 z m -11.531196,0.695045 9.047341,3.236444 -0.02127,3.61386 -9.047136,-3.27147 z m 11.531196,4.097504 9.047367,3.23642 -0.02127,3.61387 -9.047135,-3.27145 z m -11.531196,0.78731 9.047341,3.23644 -0.02127,3.61387 -9.047136,-3.27147 z m 11.531196,4.0975 9.047367,3.23644 -0.02127,3.61386 -9.047135,-3.27148 z" /></g><g
     inkscape:groupmode="layer"
     id="layer9"
     inkscape:label="LEFT-H"><path
       id="path302-5-4-4-5-5-4-9-8-2"
       style="display:inline;fill:#ffffff;fill-opacity:1;stroke:#000000;stroke-width:0.531505;stroke-linecap:butt;stroke-linejoin:miter;stroke-dasharray:none;stroke-opacity:1"
       inkscape:label="R-top-window"
       d="m 16.240839,48.315604 v 56.046816 l 9.964544,3.63205 0.02411,-18.887249 25.845108,9.420447 V 61.37687 Z m 9.997218,11.939283 16.499939,6.014162 V 85.202088 L 26.238057,79.187924 Z m 1.865131,2.328001 v 7.043223 l 5.464961,2.096944 0.01404,-7.143105 z m 7.36341,2.68393 v 7.184666 l 5.461985,2.095796 0.0055,-7.287581 z m -7.36341,6.167574 v 6.780942 l 5.464961,1.986956 v -6.77594 z m 7.36341,2.683931 v 6.780951 l 5.461957,1.99086 v -6.780958 z"
       sodipodi:nodetypes="cccccccccccccccccccccccccccccccc" /></g><g
     inkscape:groupmode="layer"
     id="layer12"
     inkscape:label="Text"><text
       xml:space="preserve"
       style="font-style:normal;font-variant:normal;font-weight:normal;font-stretch:normal;font-size:661.458px;line-height:1;font-family:'Bright Hills';-inkscape-font-specification:'Bright Hills, Normal';font-variant-ligatures:normal;font-variant-caps:normal;font-variant-numeric:normal;font-variant-east-asian:normal;text-align:center;letter-spacing:0px;word-spacing:0px;writing-mode:lr-tb;direction:ltr;text-anchor:middle;display:none;fill:#ffffff;fill-opacity:1;stroke-width:2.19604"
       id="text1-4-0-4-8-7"
       inkscape:label="hawkins"
       x="5092.0225"
       y="-2188.2139"><tspan
         sodipodi:role="line"
         id="tspan72"
         x="0"
         y="0"
         style="font-style:normal;font-variant:normal;font-weight:normal;font-stretch:normal;font-size:661.458px;line-height:1;font-family:'Bright Hills';-inkscape-font-specification:'Bright Hills, Normal';font-variant-ligatures:normal;font-variant-caps:normal;font-variant-numeric:normal;font-variant-east-asian:normal;fill:#ffffff;fill-opacity:1;stroke-width:2.19604">Park<tspan
   style="font-size:529.167px"
   id="tspan74">&amp;</tspan></tspan><tspan
         sodipodi:role="line"
         id="tspan73"
         x="0"
         y="0">Hawkins</tspan></text></g></svg>
