<?xml version="1.0" encoding="UTF-8" standalone="no"?>
<!-- Created with Inkscape (http://www.inkscape.org/) -->

<svg
   width="48"
   height="48"
   viewBox="0 0 12.7 12.699999"
   version="1.1"
   id="svg1"
   xml:space="preserve"
   sodipodi:docname="PH-favicon-wht-48x48.svg"
   inkscape:version="1.4.3 (0d15f75, 2025-12-25)"
   inkscape:export-filename="PH-blk-logo.png"
   inkscape:export-xdpi="96"
   inkscape:export-ydpi="96"
   xmlns:inkscape="http://www.inkscape.org/namespaces/inkscape"
   xmlns:sodipodi="http://sodipodi.sourceforge.net/DTD/sodipodi-0.dtd"
   xmlns="http://www.w3.org/2000/svg"
   xmlns:svg="http://www.w3.org/2000/svg"><sodipodi:namedview
     id="namedview1"
     pagecolor="#505050"
     bordercolor="#ffffff"
     borderopacity="1"
     inkscape:showpageshadow="0"
     inkscape:pageopacity="0"
     inkscape:pagecheckerboard="1"
     inkscape:deskcolor="#505050"
     inkscape:document-units="px"
     inkscape:export-bgcolor="#ffffff00"
     showgrid="true"
     inkscape:zoom="5.998782"
     inkscape:cx="23.921523"
     inkscape:cy="24.088223"
     inkscape:window-width="1658"
     inkscape:window-height="1052"
     inkscape:window-x="70"
     inkscape:window-y="37"
     inkscape:window-maximized="0"
     inkscape:current-layer="layer13"
     showguides="true"><inkscape:grid
       id="grid8"
       units="mm"
       originx="0"
       originy="0"
       spacingx="0.99999998"
       spacingy="1"
       empcolor="#0099e5"
       empopacity="0.30196078"
       color="#0099e5"
       opacity="0.14901961"
       empspacing="11"
       enabled="false"
       visible="false" /><inkscape:grid
       type="axonomgrid"
       id="grid105"
       units="px"
       originx="793.70081"
       originy="561.25983"
       spacingx="0.99999998"
       spacingy="1"
       empcolor="#ff0000"
       empopacity="0.30196078"
       color="#dee500"
       opacity="0.14901961"
       empspacing="52"
       dotted="false"
       gridanglex="22.4"
       gridanglez="34"
       enabled="false"
       visible="true" /><inkscape:grid
       type="axonomgrid"
       id="grid106"
       units="mm"
       originx="0"
       originy="0"
       spacingx="0.99999998"
       spacingy="1"
       empcolor="#0099e5"
       empopacity="0.30196078"
       color="#0099e5"
       opacity="0.14901961"
       empspacing="5"
       dotted="false"
       gridanglex="30"
       gridanglez="30"
       enabled="false"
       visible="true" /><inkscape:grid
       type="axonomgrid"
       id="grid107"
       units="mm"
       originx="0"
       originy="0"
       spacingx="0.99999998"
       spacingy="1"
       empcolor="#0099e5"
       empopacity="0.30196078"
       color="#0099e5"
       opacity="0.14901961"
       empspacing="5"
       dotted="false"
       gridanglex="30"
       gridanglez="30"
       enabled="false"
       visible="true" /><inkscape:grid
       type="modular"
       id="grid151"
       units="mm"
       originx="0"
       originy="0"
       spacingx="39.999999"
       spacingy="40.000001"
       empcolor="#0047cb"
       empopacity="0.30196078"
       color="#0099e5"
       opacity="0.14901961"
       empspacing="0"
       marginx="0"
       marginy="0"
       gapx="9.9999998"
       gapy="10"
       enabled="false"
       visible="true" /><inkscape:grid
       id="grid152"
       units="mm"
       originx="0"
       originy="0"
       spacingx="0.99999998"
       spacingy="1"
       empcolor="#0099e5"
       empopacity="0.30196078"
       color="#0099e5"
       opacity="0.14901961"
       empspacing="5"
       enabled="false"
       visible="true" /></sodipodi:namedview><defs
     id="defs1"><inkscape:path-effect
       effect="fillet_chamfer"
       id="path-effect17"
       is_visible="true"
       lpeversion="1"
       nodesatellites_param="F,0,0,1,0,0,0,1 @ F,0,0,1,0,0,0,1 @ F,0,0,1,0,0,0,1 @ F,0,0,1,0,0,0,1 @ F,0,0,1,0,0,0,1"
       radius="0"
       unit="px"
       method="auto"
       mode="F"
       chamfer_steps="1"
       flexible="false"
       use_knot_distance="true"
       apply_no_radius="true"
       apply_with_radius="true"
       only_selected="false"
       hide_knots="false" /><inkscape:path-effect
       effect="fillet_chamfer"
       id="path-effect16"
       is_visible="true"
       lpeversion="1"
       nodesatellites_param="F,0,0,1,0,0,0,1 @ F,0,0,1,0,0,0,1 @ F,0,0,1,0,0,0,1 @ F,0,0,1,0,0,0,1 @ F,0,0,1,0,0,0,1"
       radius="0"
       unit="px"
       method="auto"
       mode="F"
       chamfer_steps="1"
       flexible="false"
       use_knot_distance="true"
       apply_no_radius="true"
       apply_with_radius="true"
       only_selected="false"
       hide_knots="false" /><inkscape:path-effect
       effect="skeletal"
       id="path-effect22"
       is_visible="true"
       lpeversion="1"
       pattern="M 0,4.9921382 C 0,2.2364779 2.2364779,0 4.9921382,0 c 2.7556604,0 4.9921383,2.2364779 4.9921383,4.9921382 0,2.7556604 -2.2364779,4.9921383 -4.9921383,4.9921383 C 2.2364779,9.9842765 0,7.7477986 0,4.9921382 Z"
       copytype="single_stretched"
       prop_scale="1"
       scale_y_rel="false"
       spacing="0"
       normal_offset="0"
       tang_offset="0"
       prop_units="false"
       vertical_pattern="false"
       hide_knot="false"
       fuse_tolerance="0" /><inkscape:path-effect
       effect="skeletal"
       id="path-effect20"
       is_visible="true"
       lpeversion="1"
       pattern="M 0,4.9921382 C 0,2.2364779 2.2364779,0 4.9921382,0 c 2.7556604,0 4.9921383,2.2364779 4.9921383,4.9921382 0,2.7556604 -2.2364779,4.9921383 -4.9921383,4.9921383 C 2.2364779,9.9842765 0,7.7477986 0,4.9921382 Z"
       copytype="single_stretched"
       prop_scale="1"
       scale_y_rel="false"
       spacing="0"
       normal_offset="0"
       tang_offset="0"
       prop_units="false"
       vertical_pattern="false"
       hide_knot="false"
       fuse_tolerance="0" /><inkscape:path-effect
       effect="bspline"
       id="path-effect19"
       is_visible="true"
       lpeversion="1.3"
       weight="33.333333"
       steps="2"
       helper_size="0"
       apply_no_weight="true"
       apply_with_weight="true"
       only_selected="false"
       uniform="false" /></defs><g
     inkscape:groupmode="layer"
     id="layer3"
     inkscape:label="ROOF"
     style="display:inline"><path
       style="display:inline;fill:#ffffff;fill-opacity:1;stroke:#000000;stroke-width:0.0513274;stroke-linecap:butt;stroke-linejoin:miter;stroke-dasharray:none;stroke-opacity:1"
       d="M 1.5343061,4.4652357 2.7349384,3.9484928 5.918541,5.190132 4.9514321,5.7681544 Z"
       id="path304-6-4-0-3-9-0"
       sodipodi:nodetypes="ccccc"
       inkscape:label="roof-1" /><path
       style="display:inline;fill:#ffffff;fill-opacity:1;stroke:#000000;stroke-width:0.0513274;stroke-dasharray:none;stroke-opacity:1"
       d="M 9.8454375,3.8316809 8.1821552,4.4861091 6.6136874,3.8368628 8.2346686,3.1658791 Z"
       id="path237-1-1-7-2-9-2"
       inkscape:label="roof-4"
       sodipodi:nodetypes="ccccc" /><path
       style="display:inline;fill:#ffffff;fill-opacity:1;stroke:#000000;stroke-width:0.0513274;stroke-linecap:butt;stroke-linejoin:miter;stroke-dasharray:none;stroke-opacity:1"
       d="M 11.287806,4.4278755 10.035995,3.9104462 6.7818587,5.1903481 7.7481144,5.768342 Z"
       id="path219-0-3-8-7-1-4"
       sodipodi:nodetypes="ccccc"
       inkscape:label="roof-2" /><path
       style="display:inline;fill:#ffffff;fill-opacity:1;stroke:#000000;stroke-width:0.0513274;stroke-dasharray:none;stroke-opacity:1"
       d="M 4.7389999,3.0952298 6.3499865,3.7620727 8.0376432,3.0844388 6.3499865,2.3868563 Z"
       id="path12-6-9-6-1-7-8"
       inkscape:label="roof-6"
       sodipodi:nodetypes="ccccc" /><path
       style="display:inline;fill:#ffffff;fill-opacity:1;fill-rule:nonzero;stroke:#000000;stroke-width:0.0513274;stroke-dasharray:none;stroke-opacity:1"
       d="M 4.8136861,4.5813703 6.0985947,5.082497 6.3499865,4.9322271 c 0,0 0.2664688,0.1502699 0.2664688,0.1502699 L 7.9127895,4.5923742 6.3499865,3.9442026 Z"
       id="path306-8-8-6-0-2-39"
       inkscape:label="roof-3-mid"
       sodipodi:nodetypes="ccccccc" /><path
       style="display:inline;fill:#ffffff;fill-opacity:1;stroke:#000000;stroke-width:0.0513274;stroke-dasharray:none;stroke-opacity:1"
       d="M 2.966459,3.8609352 4.5582612,4.481752 6.1284615,3.8537726 4.5074802,3.1827875 Z"
       id="path300-7-5-0-0-3-0"
       inkscape:label="roof-5"
       sodipodi:nodetypes="ccccc" /></g><g
     inkscape:groupmode="layer"
     id="layer13"
     inkscape:label="DOOR"><path
       id="path56-7"
       style="display:none;fill:#ffffff;fill-opacity:1;stroke:#000000;stroke-width:6.90712;stroke-dasharray:none;stroke-opacity:1"
       d="m 87.912358,-79.85346 v 31.706715 H 38.56019 v 78.052419 l 11.655494,10.063645 h -95.862267 l 0.07117,17.86737 H 60.215639 l -43.466591,32.86351 v 75.699091 h 71.163236 v 25.35589 h 22.528596 v -25.35589 h 7.30164 l 28.44924,-30.91479 30.34558,30.91479 h 49.3111 l -55.4753,-55.50228 36.50934,-34.076976 -20.73294,-18.983345 h 65.17683 V 39.969319 H 136.39398 L 151.13101,29.905674 V -48.146745 H 110.44095 V -79.85346 Z M 72.099483,-14.960279 H 116.34306 V 13.46178 L 91.963868,33.176728 72.099483,13.46178 Z m 45.526267,72.796968 h 58.90009 L 146.4419,87.011309 Z M 88.256366,77.823083 121.46085,111.807 98.968952,132.26899 H 51.074963 v -27.92476 z" /><path
       style="display:inline;fill:#ffffff;fill-opacity:1;stroke:#000000;stroke-width:0.0513274;stroke-dasharray:none;stroke-opacity:1"
       d="M 6.3499883,5.1805467 5.027721,5.9452931 v 5.4541279 h 0.4621716 c 0,0 -0.016967,-1.6617249 0.013473,-2.4920634 0.00508,-0.1363854 0.092738,-0.3088135 0.1607873,-0.407255 0.1113453,-0.1610796 0.2796299,-0.2762909 0.3074987,-0.2910895 0.041056,-0.021795 0.3325723,-0.1897088 0.7534188,-0.026667 0.11026,0.042716 0.2316041,0.1544976 0.2975689,0.2344148 0.158644,0.1922108 0.195358,0.3852053 0.2081662,0.5260718 0.00466,0.051011 0.00408,1.8066873 0.0083,2.4565943 h 0.4327158 l 4.56e-4,-5.4541299 z"
       id="path5" /><path
       id="path17-6-4-5-7-5-2"
       style="display:inline;fill:#ffffff;fill-opacity:1;stroke:#000000;stroke-width:0.0513274;stroke-dasharray:none;stroke-opacity:1"
       d="m 6.3491607,8.2518544 c -0.013993,9.7e-5 -0.027918,8.848e-4 -0.041753,0.00234 C 6.0714931,8.2787765 5.8783654,8.4160184 5.7731217,8.6042135 5.667878,8.7924091 5.6505123,9.0315507 5.6505123,9.0315507 V 11.399412 H 7.080175 c 0,0 0.00687,-2.0912887 -0.00333,-2.3520391 C 7.0718116,8.9188234 7.0422745,8.725013 6.9118507,8.5570032 6.7824233,8.3902636 6.5590086,8.2497453 6.349163,8.2518336 Z M 6.769207,9.9689331 c 0.065301,0 0.1182361,0.05577 0.1182361,0.1245699 0,0.06881 -0.052937,0.124578 -0.1182361,0.124578 -0.065301,0 -0.118236,-0.05578 -0.118236,-0.124578 0,-0.06881 0.052937,-0.1245699 0.118236,-0.1245699 z"
       inkscape:label="door-inner"
       sodipodi:nodetypes="ssscccssssssss" /></g><g
     inkscape:groupmode="layer"
     id="layer14"
     inkscape:label="OUTER-ROOF"><path
       style="display:inline;fill:#ffffff;fill-opacity:1;stroke:#000000;stroke-width:0.0513274;stroke-linecap:butt;stroke-linejoin:miter;stroke-dasharray:none;stroke-opacity:1"
       d="m 6.3499865,2.083964 6.0977315,2.6181983 0.005,-0.6796207 -2.414096,-1.0458949 -0.01615,-0.9900943 -0.8708253,0.0026 0.00742,0.606434 -2.8091272,-1.217004 -6.11545869,2.643959 v 0.6977468 z"
       id="path8-6-5-7-1-5-27"
       sodipodi:nodetypes="ccccccccccc"
       inkscape:label="outer-roof" /><rect
       style="display:inline;fill:#ffffff;fill-opacity:1;stroke:#000000;stroke-width:0.0513274;stroke-dasharray:none;stroke-opacity:1"
       id="rect19-9-4-9-7-8-3"
       width="1.2220705"
       height="0.28859022"
       x="8.9753008"
       y="1.6101562"
       inkscape:label="chimney"
       transform="matrix(0.99999516,-0.00311286,0.00280426,0.99999607,0,0)" /></g><g
     inkscape:groupmode="layer"
     id="layer8"
     inkscape:label="RIGHT-H"><path
       style="display:inline;fill:#ffffff;fill-opacity:1;fill-rule:nonzero;stroke:#000000;stroke-width:0.0513274;stroke-linecap:butt;stroke-linejoin:miter;stroke-dasharray:none;stroke-opacity:1"
       d="m 11.408614,4.5257977 v 5.3915454 l -0.97385,0.3905259 V 7.9797029 l -1.6231837,0.5876135 -9.16e-5,2.3915296 -0.9785691,0.39242 V 5.8969928 L 8.8114824,5.5217357 8.8115739,7.4629193 10.43647,6.864524 10.43467,4.9001737 Z"
       id="path301-3-7-3-3-4-1-7"
       sodipodi:nodetypes="ccccccccccccc"
       inkscape:label="H-right" /><path
       id="path302-5-4-4-5-5-4-9"
       style="display:inline;fill:#ffffff;fill-opacity:1;stroke:#000000;stroke-width:0.0513274;stroke-linecap:butt;stroke-linejoin:miter;stroke-dasharray:none;stroke-opacity:1"
       d="M 10.26605,4.9639383 V 5.7364077 L 9.7183719,5.9413922 9.7165418,5.1746226 Z M 9.5281176,5.2469167 V 6.0125984 L 8.9807359,6.2174681 8.9801785,5.4579703 Z M 10.26605,5.916319 V 6.675874 L 9.7183719,6.8938804 V 6.119613 Z M 9.5281176,6.1902336 9.5275338,6.9717663 8.9807093,7.1617249 V 6.4071822 Z"
       inkscape:label="R-top-window"
       sodipodi:nodetypes="cccccccccccccccccccc" /><path
       id="path303-8-8-2-0-1-7-0"
       style="display:inline;fill:#ffffff;fill-opacity:1;stroke:#000000;stroke-width:0.0513274;stroke-linecap:butt;stroke-linejoin:miter;stroke-dasharray:none;stroke-opacity:1"
       inkscape:label="R-window-frame"
       d="M 10.26605,8.2026024 V 10.371907 L 8.9807359,10.890284 V 8.6530999 Z M 10.028067,8.5969188 9.7183719,8.7141399 V 9.0977443 L 9.8617875,9.0434691 10.028067,8.9822625 Z M 9.5281176,8.7859096 9.2239673,8.9006391 9.2216798,9.2883732 9.528125,9.1696729 Z M 10.028067,9.1657648 9.7183719,9.2870195 V 9.6684663 L 10.028067,9.5518258 Z M 9.5277223,9.3614803 9.2226077,9.4822342 9.2230633,9.8538801 9.528135,9.7394123 Z M 10.028067,9.7588755 9.7183719,9.8787761 V 10.295085 L 10.028067,10.17622 Z M 9.5281176,9.9524341 9.2217119,10.07106 l 0.00101,0.419714 0.3055082,-0.120999 z"
       sodipodi:nodetypes="cccccccccccccccccccccccccccccccccccc" /><text
       xml:space="preserve"
       style="font-size:661.458px;line-height:15.025;font-family:'Bright Hills';-inkscape-font-specification:'Bright Hills, Normal';text-align:center;letter-spacing:-52.9193px;word-spacing:0px;writing-mode:lr-tb;direction:ltr;text-anchor:middle;fill:#ffffff;fill-opacity:1;stroke:#000000;stroke-width:4.35401;stroke-dasharray:none;stroke-opacity:1"
       x="-3391.0183"
       y="-2610.9861"
       id="text37"><tspan
         sodipodi:role="line"
         id="tspan37"
         style="stroke-width:4.354"
         x="-3391.0183"
         y="-2610.9861" /></text><path
       style="font-size:936.545px;line-height:15.92;font-family:Quadrangle;-inkscape-font-specification:'Quadrangle, Normal';text-align:center;letter-spacing:-37.4636px;word-spacing:0px;text-anchor:middle;display:none;fill:#ffffff;stroke:#000000;stroke-width:3.882;stroke-dasharray:none"
       d="M -236.55165,72.728363 -435.09918,-27.48195 h -697.72602 v 661.23158 l 249.83636,3.80517 V 452.51969 l 447.88966,-7.04642 198.54753,-100.21032 z M -882.98884,299.65196 V 108.02615 l 395.37934,5.72981 v 191.62581 z"
       id="text38"
       aria-label="P"
       sodipodi:nodetypes="cccccccccccccc"
       transform="matrix(0.70751084,0.24776701,0,1.4134059,0,0)"
       sodipodi:insensitive="true" /><text
       xml:space="preserve"
       style="font-style:normal;font-variant:normal;font-weight:normal;font-stretch:normal;font-size:1374.33px;line-height:15.92;font-family:Quantico;-inkscape-font-specification:'Quantico, Normal';font-variant-ligatures:normal;font-variant-caps:normal;font-variant-numeric:normal;font-variant-east-asian:normal;text-align:center;letter-spacing:-54.9757px;word-spacing:0px;writing-mode:lr-tb;direction:ltr;text-anchor:middle;display:none;fill:#ffffff;fill-opacity:1;stroke:#000000;stroke-width:4.5232;stroke-dasharray:none;stroke-opacity:1"
       x="-480.33014"
       y="927.66443"
       id="text38-2"
       transform="matrix(1.0382315,0.38723956,0,0.96317633,0,0)"><tspan
         sodipodi:role="line"
         id="tspan38-4"
         style="font-style:normal;font-variant:normal;font-weight:normal;font-stretch:normal;font-size:1374.33px;line-height:15.92;font-family:Quantico;-inkscape-font-specification:'Quantico, Normal';font-variant-ligatures:normal;font-variant-caps:normal;font-variant-numeric:normal;font-variant-east-asian:normal;stroke-width:4.5232"
         x="0"
         y="0">P</tspan></text><path
       id="path303-8-4-1-2-8-9"
       style="display:none;fill:none;fill-opacity:1;stroke:#000000;stroke-width:19.7976;stroke-linecap:butt;stroke-linejoin:miter;stroke-dasharray:none;stroke-opacity:1"
       inkscape:label="window-frame"
       d="m -1669.87,985.97132 v 461.62728 l 707.44591,-18.2459 V 972.61422 Z m 130.988,65.04958 h 170.4577 v 82.62 l -78.9369,-8.9537 -91.5208,-10.0959 z"
       sodipodi:nodetypes="ccccccccccc" /><path
       id="path24"
       style="fill:#ffffff;fill-opacity:1;stroke:#000000;stroke-width:0.0513274;stroke-dasharray:none;stroke-opacity:1"
       inkscape:label="garage-door"
       d="m 2.5795143,8.8149359 v 1.6658321 l 2.2906543,0.870089 V 9.6562035 Z M 2.7320218,9.0862038 3.5965651,9.4020609 3.5945429,9.7547518 2.7300191,9.4354771 Z M 3.8339164,9.4860943 4.6984622,9.8019511 4.6964422,10.154642 3.8319186,9.8353671 Z M 2.7320218,9.5539233 3.5965651,9.8697801 3.5945451,10.22247 2.7300213,9.9031961 Z m 1.1018946,0.3998918 0.8645458,0.3158529 -0.00202,0.352693 -0.8645235,-0.319274 z m -1.1018946,0.07684 0.8645433,0.315857 -0.00202,0.35269 -0.8645237,-0.319274 z m 1.1018946,0.399891 0.8645458,0.315856 -0.00202,0.352691 -0.8645235,-0.319276 z" /></g><g
     inkscape:groupmode="layer"
     id="layer9"
     inkscape:label="LEFT-H"><path
       id="path10"
       style="display:none;fill:#ffffff;fill-opacity:1;stroke:#000000;stroke-width:13.2292;stroke-dasharray:none"
       inkscape:label="P-letter"
       d="m -811.92822,-320.68689 v 934.58895 l 176.76182,67.2791 V 378.65957 l 457.36123,171.27379 V -100.8941 Z m 176.91323,190.98266 291.98683,115.943313 V 321.82067 L -635.01499,205.87684 Z" /><path
       id="path302-5-4-4-5-5-4-9-8-2"
       style="display:inline;fill:#ffffff;fill-opacity:1;stroke:#000000;stroke-width:0.0513274;stroke-linecap:butt;stroke-linejoin:miter;stroke-dasharray:none;stroke-opacity:1"
       inkscape:label="R-top-window"
       d="M 1.4459759,4.5962494 V 10.06607 l 0.952189,0.354467 0.00231,-1.843279 2.4696995,0.9193768 V 5.8709476 Z M 2.4012871,5.7614491 3.9779836,6.3483942 V 8.1961407 L 2.4012871,7.6091956 Z M 2.579515,5.9886478 v 0.6873744 l 0.5222189,0.2046487 0.00134,-0.6971227 z m 0.7036303,0.2619344 v 0.7011795 l 0.5219351,0.204536 5.321e-4,-0.7112222 z M 2.579515,6.8524993 V 7.5142771 L 3.1017339,7.7081918 V 7.0469019 Z M 3.2831453,7.1144345 V 7.7762129 L 3.8050777,7.9705085 V 7.3087287 Z"
       sodipodi:nodetypes="cccccccccccccccccccccccccccccccc" /></g><g
     inkscape:groupmode="layer"
     id="layer12"
     inkscape:label="Text"><text
       xml:space="preserve"
       style="font-style:normal;font-variant:normal;font-weight:normal;font-stretch:normal;font-size:661.458px;line-height:1;font-family:'Bright Hills';-inkscape-font-specification:'Bright Hills, Normal';font-variant-ligatures:normal;font-variant-caps:normal;font-variant-numeric:normal;font-variant-east-asian:normal;text-align:center;letter-spacing:0px;word-spacing:0px;writing-mode:lr-tb;direction:ltr;text-anchor:middle;display:none;fill:#ffffff;fill-opacity:1;stroke-width:2.19604"
       id="text1-4-0-4-8-7"
       inkscape:label="hawkins"
       x="5092.0225"
       y="-2188.2139"><tspan
         sodipodi:role="line"
         id="tspan72"
         x="0"
         y="0"
         style="font-style:normal;font-variant:normal;font-weight:normal;font-stretch:normal;font-size:661.458px;line-height:1;font-family:'Bright Hills';-inkscape-font-specification:'Bright Hills, Normal';font-variant-ligatures:normal;font-variant-caps:normal;font-variant-numeric:normal;font-variant-east-asian:normal;fill:#ffffff;fill-opacity:1;stroke-width:2.19604">Park<tspan
   style="font-size:529.167px"
   id="tspan74">&amp;</tspan></tspan><tspan
         sodipodi:role="line"
         id="tspan73"
         x="0"
         y="0">Hawkins</tspan></text></g></svg>
