<?xml version="1.0" encoding="UTF-8" standalone="no"?>
<!-- Created with Inkscape (http://www.inkscape.org/) -->

<svg
   width="192"
   height="192"
   viewBox="0 0 50.800001 50.799997"
   version="1.1"
   id="svg1"
   xml:space="preserve"
   sodipodi:docname="PH-favicon-wht-192x192.svg"
   inkscape:version="1.4.3 (0d15f75, 2025-12-25)"
   inkscape:export-filename="PH-blk-logo.png"
   inkscape:export-xdpi="96"
   inkscape:export-ydpi="96"
   xmlns:inkscape="http://www.inkscape.org/namespaces/inkscape"
   xmlns:sodipodi="http://sodipodi.sourceforge.net/DTD/sodipodi-0.dtd"
   xmlns="http://www.w3.org/2000/svg"
   xmlns:svg="http://www.w3.org/2000/svg"><sodipodi:namedview
     id="namedview1"
     pagecolor="#505050"
     bordercolor="#ffffff"
     borderopacity="1"
     inkscape:showpageshadow="0"
     inkscape:pageopacity="0"
     inkscape:pagecheckerboard="1"
     inkscape:deskcolor="#505050"
     inkscape:document-units="px"
     inkscape:export-bgcolor="#ffffff00"
     showgrid="true"
     inkscape:zoom="1.52584"
     inkscape:cx="109.12022"
     inkscape:cy="136.64604"
     inkscape:window-width="1658"
     inkscape:window-height="1052"
     inkscape:window-x="70"
     inkscape:window-y="33"
     inkscape:window-maximized="0"
     inkscape:current-layer="svg1"
     showguides="true"><inkscape:grid
       id="grid8"
       units="mm"
       originx="0"
       originy="0"
       spacingx="0.99999998"
       spacingy="1"
       empcolor="#0099e5"
       empopacity="0.30196078"
       color="#0099e5"
       opacity="0.14901961"
       empspacing="11"
       enabled="false"
       visible="false" /><inkscape:grid
       type="axonomgrid"
       id="grid105"
       units="px"
       originx="793.70081"
       originy="561.25983"
       spacingx="0.99999998"
       spacingy="1"
       empcolor="#ff0000"
       empopacity="0.30196078"
       color="#dee500"
       opacity="0.14901961"
       empspacing="52"
       dotted="false"
       gridanglex="22.4"
       gridanglez="34"
       enabled="false"
       visible="true" /><inkscape:grid
       type="axonomgrid"
       id="grid106"
       units="mm"
       originx="0"
       originy="0"
       spacingx="0.99999998"
       spacingy="1"
       empcolor="#0099e5"
       empopacity="0.30196078"
       color="#0099e5"
       opacity="0.14901961"
       empspacing="5"
       dotted="false"
       gridanglex="30"
       gridanglez="30"
       enabled="false"
       visible="true" /><inkscape:grid
       type="axonomgrid"
       id="grid107"
       units="mm"
       originx="0"
       originy="0"
       spacingx="0.99999998"
       spacingy="1"
       empcolor="#0099e5"
       empopacity="0.30196078"
       color="#0099e5"
       opacity="0.14901961"
       empspacing="5"
       dotted="false"
       gridanglex="30"
       gridanglez="30"
       enabled="false"
       visible="true" /><inkscape:grid
       type="modular"
       id="grid151"
       units="mm"
       originx="0"
       originy="0"
       spacingx="39.999999"
       spacingy="40.000001"
       empcolor="#0047cb"
       empopacity="0.30196078"
       color="#0099e5"
       opacity="0.14901961"
       empspacing="0"
       marginx="0"
       marginy="0"
       gapx="9.9999998"
       gapy="10"
       enabled="false"
       visible="true" /><inkscape:grid
       id="grid152"
       units="mm"
       originx="0"
       originy="0"
       spacingx="0.99999998"
       spacingy="1"
       empcolor="#0099e5"
       empopacity="0.30196078"
       color="#0099e5"
       opacity="0.14901961"
       empspacing="5"
       enabled="false"
       visible="true" /></sodipodi:namedview><defs
     id="defs1"><inkscape:path-effect
       effect="fillet_chamfer"
       id="path-effect17"
       is_visible="true"
       lpeversion="1"
       nodesatellites_param="F,0,0,1,0,0,0,1 @ F,0,0,1,0,0,0,1 @ F,0,0,1,0,0,0,1 @ F,0,0,1,0,0,0,1 @ F,0,0,1,0,0,0,1"
       radius="0"
       unit="px"
       method="auto"
       mode="F"
       chamfer_steps="1"
       flexible="false"
       use_knot_distance="true"
       apply_no_radius="true"
       apply_with_radius="true"
       only_selected="false"
       hide_knots="false" /><inkscape:path-effect
       effect="fillet_chamfer"
       id="path-effect16"
       is_visible="true"
       lpeversion="1"
       nodesatellites_param="F,0,0,1,0,0,0,1 @ F,0,0,1,0,0,0,1 @ F,0,0,1,0,0,0,1 @ F,0,0,1,0,0,0,1 @ F,0,0,1,0,0,0,1"
       radius="0"
       unit="px"
       method="auto"
       mode="F"
       chamfer_steps="1"
       flexible="false"
       use_knot_distance="true"
       apply_no_radius="true"
       apply_with_radius="true"
       only_selected="false"
       hide_knots="false" /><inkscape:path-effect
       effect="skeletal"
       id="path-effect22"
       is_visible="true"
       lpeversion="1"
       pattern="M 0,4.9921382 C 0,2.2364779 2.2364779,0 4.9921382,0 c 2.7556604,0 4.9921383,2.2364779 4.9921383,4.9921382 0,2.7556604 -2.2364779,4.9921383 -4.9921383,4.9921383 C 2.2364779,9.9842765 0,7.7477986 0,4.9921382 Z"
       copytype="single_stretched"
       prop_scale="1"
       scale_y_rel="false"
       spacing="0"
       normal_offset="0"
       tang_offset="0"
       prop_units="false"
       vertical_pattern="false"
       hide_knot="false"
       fuse_tolerance="0" /><inkscape:path-effect
       effect="skeletal"
       id="path-effect20"
       is_visible="true"
       lpeversion="1"
       pattern="M 0,4.9921382 C 0,2.2364779 2.2364779,0 4.9921382,0 c 2.7556604,0 4.9921383,2.2364779 4.9921383,4.9921382 0,2.7556604 -2.2364779,4.9921383 -4.9921383,4.9921383 C 2.2364779,9.9842765 0,7.7477986 0,4.9921382 Z"
       copytype="single_stretched"
       prop_scale="1"
       scale_y_rel="false"
       spacing="0"
       normal_offset="0"
       tang_offset="0"
       prop_units="false"
       vertical_pattern="false"
       hide_knot="false"
       fuse_tolerance="0" /><inkscape:path-effect
       effect="bspline"
       id="path-effect19"
       is_visible="true"
       lpeversion="1.3"
       weight="33.333333"
       steps="2"
       helper_size="0"
       apply_no_weight="true"
       apply_with_weight="true"
       only_selected="false"
       uniform="false" /></defs><g
     inkscape:groupmode="layer"
     id="layer3"
     inkscape:label="ROOF"
     style="display:inline"><path
       style="display:inline;fill:#ffffff;fill-opacity:1;stroke:#000000;stroke-width:0.200273;stroke-linecap:butt;stroke-linejoin:miter;stroke-dasharray:none;stroke-opacity:1"
       d="m 6.3885149,17.98485 4.7398771,-1.992804 12.568283,4.788344 -3.81797,2.229124 z"
       id="path304-6-4-0-3-9-0"
       sodipodi:nodetypes="ccccc"
       inkscape:label="roof-1" /><path
       style="display:inline;fill:#ffffff;fill-opacity:1;stroke:#000000;stroke-width:0.200273;stroke-dasharray:none;stroke-opacity:1"
       d="m 39.199348,15.541564 -6.566337,2.523782 -6.192026,-2.503797 6.39934,-2.587629 z"
       id="path237-1-1-7-2-9-2"
       inkscape:label="roof-4"
       sodipodi:nodetypes="ccccc" /><path
       style="display:inline;fill:#ffffff;fill-opacity:1;stroke:#000000;stroke-width:0.200273;stroke-linecap:butt;stroke-linejoin:miter;stroke-dasharray:none;stroke-opacity:1"
       d="m 44.893555,17.84077 -4.941922,-1.99545 -12.846736,4.935904 3.814601,2.229013 z"
       id="path219-0-3-8-7-1-4"
       sodipodi:nodetypes="ccccc"
       inkscape:label="roof-2" /><path
       style="display:inline;fill:#ffffff;fill-opacity:1;stroke:#000000;stroke-width:0.200273;stroke-dasharray:none;stroke-opacity:1"
       d="m 19.040062,12.701465 6.359881,2.571658 6.662561,-2.613273 -6.662561,-2.6902075 z"
       id="path12-6-9-6-1-7-8"
       inkscape:label="roof-6"
       sodipodi:nodetypes="ccccc" /><path
       style="display:inline;fill:#ffffff;fill-opacity:1;fill-rule:nonzero;stroke:#000000;stroke-width:0.200273;stroke-dasharray:none;stroke-opacity:1"
       d="m 19.334909,18.43272 5.072585,1.932579 0.992449,-0.579513 c 0,0 1.05197,0.579513 1.05197,0.579513 l 5.117691,-1.890144 -6.169661,-2.499653 z"
       id="path306-8-8-6-0-2-39"
       inkscape:label="roof-3-mid"
       sodipodi:nodetypes="ccccccc" /><path
       style="display:inline;fill:#ffffff;fill-opacity:1;stroke:#000000;stroke-width:0.200273;stroke-dasharray:none;stroke-opacity:1"
       d="m 12.042393,15.654383 6.284145,2.39416 6.198865,-2.421783 -6.399339,-2.587632 z"
       id="path300-7-5-0-0-3-0"
       inkscape:label="roof-5"
       sodipodi:nodetypes="ccccc" /></g><g
     inkscape:groupmode="layer"
     id="layer13"
     inkscape:label="DOOR"><path
       style="display:inline;fill:#ffffff;fill-opacity:1;stroke:#000000;stroke-width:0.200273;stroke-dasharray:none;stroke-opacity:1"
       d="m 25.39995,20.743424 -5.22007,2.949222 V 44.72632 h 1.824569 c 0,0 -0.06698,-6.40839 0.05319,-9.610566 0.02005,-0.525968 0.366113,-1.190929 0.634759,-1.570565 0.439571,-0.621199 1.103928,-1.065508 1.213949,-1.122578 0.162079,-0.08406 1.312935,-0.731606 2.974359,-0.102855 0.435287,0.164725 0.914332,0.595817 1.174749,0.904015 0.626297,0.741257 0.771237,1.485534 0.821803,2.02878 0.01831,0.196723 0.01622,6.967427 0.03276,9.473771 H 30.6183 l 0.0018,-21.033674 z"
       id="path5"
       inkscape:label="door-outer" /><path
       id="path17-6-4-5-7-5-2"
       style="display:inline;fill:#ffffff;fill-opacity:1;stroke:#000000;stroke-width:0.200273;stroke-dasharray:none;stroke-opacity:1"
       d="m 25.396683,32.587827 c -0.05524,3.75e-4 -0.110213,0.0034 -0.164831,0.009 -0.93135,0.09478 -1.693782,0.62405 -2.109265,1.349817 -0.415483,0.725768 -0.48404,1.648013 -0.48404,1.648013 v 9.131585 h 5.644048 c 0,0 0.0271,-8.064994 -0.01316,-9.070569 -0.01986,-0.495744 -0.136478,-1.243165 -0.651367,-1.89109 -0.510944,-0.642985 -1.392944,-1.184889 -2.221376,-1.176837 z m 1.658265,6.621858 c 0.257797,0 0.466776,0.215082 0.466776,0.480406 0,0.265323 -0.208979,0.480429 -0.466776,0.480429 -0.257794,0 -0.466773,-0.215106 -0.466773,-0.480429 0,-0.265324 0.208979,-0.480406 0.466773,-0.480406 z"
       inkscape:label="door-inner"
       sodipodi:nodetypes="ssscccssssssss" /></g><g
     inkscape:groupmode="layer"
     id="layer14"
     inkscape:label="OUTER-ROOF"><path
       style="display:inline;fill:#ffffff;fill-opacity:1;stroke:#000000;stroke-width:0.200273;stroke-linecap:butt;stroke-linejoin:miter;stroke-dasharray:none;stroke-opacity:1"
       d="m 25.399943,8.8015488 24.072734,10.0970012 0.01962,-2.620936 -9.53041,-4.033463 -0.06375,-3.8182669 -3.437857,0.01013 0.02937,2.3386939 L 25.399943,6.0812716 1.2572265,16.277619 v 2.690839 z"
       id="path8-6-5-7-1-5-27"
       sodipodi:nodetypes="ccccccccccc"
       inkscape:label="outer-roof" /><rect
       style="display:inline;fill:#ffffff;fill-opacity:1;stroke:#000000;stroke-width:0.200273;stroke-dasharray:none;stroke-opacity:1"
       id="rect19-9-4-9-7-8-3"
       width="4.8245106"
       height="1.1129395"
       x="35.761997"
       y="6.9753284"
       inkscape:label="chimney"
       transform="matrix(0.99999538,-0.00304083,0.00287067,0.99999588,0,0)" /></g><g
     inkscape:groupmode="layer"
     id="layer8"
     inkscape:label="RIGHT-H"><path
       style="display:inline;fill:#ffffff;fill-opacity:1;fill-rule:nonzero;stroke:#000000;stroke-width:0.200273;stroke-linecap:butt;stroke-linejoin:miter;stroke-dasharray:none;stroke-opacity:1"
       d="m 45.370483,18.218404 v 20.792325 l -3.844578,1.506053 v -8.978498 l -6.408042,2.266113 -3.6e-4,9.222857 -3.863208,1.513354 V 23.506377 l 3.863186,-1.447169 3.6e-4,7.486116 6.414798,-2.307693 -0.0068,-7.575457 z"
       id="path301-3-7-3-3-4-1-7"
       sodipodi:nodetypes="ccccccccccccc"
       inkscape:label="H-right" /><path
       id="path302-5-4-4-5-5-4-9"
       style="display:inline;fill:#ffffff;fill-opacity:1;stroke:#000000;stroke-width:0.200273;stroke-linecap:butt;stroke-linejoin:miter;stroke-dasharray:none;stroke-opacity:1"
       d="m 40.85985,19.908082 v 2.979002 l -2.162132,0.790516 -0.0069,-2.957022 z m -2.913224,1.091296 v 2.952827 l -2.160962,0.790075 -0.0022,-2.92898 z m 2.913224,2.58153 v 2.929199 l -2.162132,0.840735 v -2.985937 z m -2.913224,1.056343 -0.0023,3.013957 -2.15877,0.732568 v -2.909869 z"
       inkscape:label="R-top-window"
       sodipodi:nodetypes="cccccccccccccccccccc" /><path
       id="path303-8-8-2-0-1-7-0"
       style="display:inline;fill:#ffffff;fill-opacity:1;stroke:#000000;stroke-width:0.200273;stroke-linecap:butt;stroke-linejoin:miter;stroke-dasharray:none;stroke-opacity:1"
       inkscape:label="R-window-frame"
       d="m 40.85985,32.397889 v 8.365858 l -5.074186,1.999102 v -8.627634 z m -0.939515,1.520667 -1.222617,0.45206 v 1.479356 l 0.56618,-0.209291 0.656437,-0.236035 z m -1.973709,0.728837 -1.200726,0.442453 -0.009,1.495281 1.209788,-0.457764 z m 1.973709,1.464898 -1.222617,0.467617 v 1.471039 l 1.222617,-0.449824 z m -1.975269,0.75477 -1.204536,0.465688 0.0018,1.43324 1.204369,-0.441441 z m 1.975269,1.532542 -1.222617,0.462393 v 1.605486 l 1.222617,-0.458396 z m -1.973709,0.746453 -1.209636,0.457483 0.0036,1.618609 1.206093,-0.466629 z"
       sodipodi:nodetypes="cccccccccccccccccccccccccccccccccccc" /><path
       id="path24"
       style="fill:#ffffff;fill-opacity:1;stroke:#000000;stroke-width:0.200273;stroke-dasharray:none;stroke-opacity:1"
       inkscape:label="garage-door"
       d="m 10.514806,34.759333 v 6.424229 l 9.043086,3.355473 v -6.535382 z m 0.602072,1.046137 3.413059,1.218091 -0.008,1.360143 -3.412982,-1.231273 z m 4.350079,1.542163 3.413069,1.218094 -0.008,1.360139 -3.412981,-1.231274 z m -4.350079,0.261592 3.413059,1.218093 -0.008,1.360139 -3.412982,-1.231275 z m 4.350079,1.542167 3.413069,1.218084 -0.008,1.360143 -3.412981,-1.231268 z m -4.350079,0.296319 3.413059,1.21809 -0.008,1.360143 -3.412982,-1.231274 z m 4.350079,1.542165 3.413069,1.21809 -0.008,1.360139 -3.412981,-1.231278 z" /></g><g
     inkscape:groupmode="layer"
     id="layer9"
     inkscape:label="LEFT-H"><path
       id="path302-5-4-4-5-5-4-9-8-2"
       style="display:inline;fill:#ffffff;fill-opacity:1;stroke:#000000;stroke-width:0.200273;stroke-linecap:butt;stroke-linejoin:miter;stroke-dasharray:none;stroke-opacity:1"
       inkscape:label="R-top-window"
       d="m 6.0398034,18.490099 v 21.094196 l 3.7590681,1.366985 0.0091,-7.108545 9.7499235,3.545548 V 23.405934 Z m 3.7713941,4.493558 6.2245105,2.263534 v 7.125778 L 9.8111975,30.109434 Z m 0.7036115,0.876183 v 2.65084 l 2.061625,0.789221 0.0053,-2.688432 z m 2.777804,1.010143 v 2.704076 l 2.060505,0.788788 0.0021,-2.742808 z m -2.777804,2.321275 v 2.552125 l 2.061625,0.747826 v -2.550244 z m 2.777804,1.010144 v 2.552128 l 2.060494,0.749295 v -2.552132 z"
       sodipodi:nodetypes="cccccccccccccccccccccccccccccccc" /></g></svg>
