<?xml version="1.0" encoding="UTF-8" standalone="no"?>
<!-- Created with Inkscape (http://www.inkscape.org/) -->

<svg
   width="16"
   height="16"
   viewBox="0 0 4.2333333 4.233333"
   version="1.1"
   id="svg1"
   xml:space="preserve"
   sodipodi:docname="PH-favicon-wht-16x16.svg"
   inkscape:version="1.4.3 (0d15f75, 2025-12-25)"
   inkscape:export-filename="PH-blk-logo.png"
   inkscape:export-xdpi="96"
   inkscape:export-ydpi="96"
   xmlns:inkscape="http://www.inkscape.org/namespaces/inkscape"
   xmlns:sodipodi="http://sodipodi.sourceforge.net/DTD/sodipodi-0.dtd"
   xmlns="http://www.w3.org/2000/svg"
   xmlns:svg="http://www.w3.org/2000/svg"><sodipodi:namedview
     id="namedview1"
     pagecolor="#505050"
     bordercolor="#ffffff"
     borderopacity="1"
     inkscape:showpageshadow="0"
     inkscape:pageopacity="0"
     inkscape:pagecheckerboard="1"
     inkscape:deskcolor="#505050"
     inkscape:document-units="px"
     inkscape:export-bgcolor="#ffffff00"
     showgrid="true"
     inkscape:zoom="17.120567"
     inkscape:cx="9.4330989"
     inkscape:cy="15.332436"
     inkscape:window-width="1658"
     inkscape:window-height="1052"
     inkscape:window-x="70"
     inkscape:window-y="37"
     inkscape:window-maximized="0"
     inkscape:current-layer="layer13"
     showguides="true"><inkscape:grid
       id="grid8"
       units="mm"
       originx="0"
       originy="0"
       spacingx="0.99999998"
       spacingy="1"
       empcolor="#0099e5"
       empopacity="0.30196078"
       color="#0099e5"
       opacity="0.14901961"
       empspacing="11"
       enabled="false"
       visible="false" /><inkscape:grid
       type="axonomgrid"
       id="grid105"
       units="px"
       originx="793.70081"
       originy="561.25983"
       spacingx="0.99999998"
       spacingy="1"
       empcolor="#ff0000"
       empopacity="0.30196078"
       color="#dee500"
       opacity="0.14901961"
       empspacing="52"
       dotted="false"
       gridanglex="22.4"
       gridanglez="34"
       enabled="false"
       visible="true" /><inkscape:grid
       type="axonomgrid"
       id="grid106"
       units="mm"
       originx="0"
       originy="0"
       spacingx="0.99999998"
       spacingy="1"
       empcolor="#0099e5"
       empopacity="0.30196078"
       color="#0099e5"
       opacity="0.14901961"
       empspacing="5"
       dotted="false"
       gridanglex="30"
       gridanglez="30"
       enabled="false"
       visible="true" /><inkscape:grid
       type="axonomgrid"
       id="grid107"
       units="mm"
       originx="0"
       originy="0"
       spacingx="0.99999998"
       spacingy="1"
       empcolor="#0099e5"
       empopacity="0.30196078"
       color="#0099e5"
       opacity="0.14901961"
       empspacing="5"
       dotted="false"
       gridanglex="30"
       gridanglez="30"
       enabled="false"
       visible="true" /><inkscape:grid
       type="modular"
       id="grid151"
       units="mm"
       originx="0"
       originy="0"
       spacingx="39.999999"
       spacingy="40.000001"
       empcolor="#0047cb"
       empopacity="0.30196078"
       color="#0099e5"
       opacity="0.14901961"
       empspacing="0"
       marginx="0"
       marginy="0"
       gapx="9.9999998"
       gapy="10"
       enabled="false"
       visible="true" /><inkscape:grid
       id="grid152"
       units="mm"
       originx="0"
       originy="0"
       spacingx="0.99999998"
       spacingy="1"
       empcolor="#0099e5"
       empopacity="0.30196078"
       color="#0099e5"
       opacity="0.14901961"
       empspacing="5"
       enabled="false"
       visible="true" /></sodipodi:namedview><defs
     id="defs1"><inkscape:path-effect
       effect="fillet_chamfer"
       id="path-effect17"
       is_visible="true"
       lpeversion="1"
       nodesatellites_param="F,0,0,1,0,0,0,1 @ F,0,0,1,0,0,0,1 @ F,0,0,1,0,0,0,1 @ F,0,0,1,0,0,0,1 @ F,0,0,1,0,0,0,1"
       radius="0"
       unit="px"
       method="auto"
       mode="F"
       chamfer_steps="1"
       flexible="false"
       use_knot_distance="true"
       apply_no_radius="true"
       apply_with_radius="true"
       only_selected="false"
       hide_knots="false" /><inkscape:path-effect
       effect="fillet_chamfer"
       id="path-effect16"
       is_visible="true"
       lpeversion="1"
       nodesatellites_param="F,0,0,1,0,0,0,1 @ F,0,0,1,0,0,0,1 @ F,0,0,1,0,0,0,1 @ F,0,0,1,0,0,0,1 @ F,0,0,1,0,0,0,1"
       radius="0"
       unit="px"
       method="auto"
       mode="F"
       chamfer_steps="1"
       flexible="false"
       use_knot_distance="true"
       apply_no_radius="true"
       apply_with_radius="true"
       only_selected="false"
       hide_knots="false" /><inkscape:path-effect
       effect="skeletal"
       id="path-effect22"
       is_visible="true"
       lpeversion="1"
       pattern="M 0,4.9921382 C 0,2.2364779 2.2364779,0 4.9921382,0 c 2.7556604,0 4.9921383,2.2364779 4.9921383,4.9921382 0,2.7556604 -2.2364779,4.9921383 -4.9921383,4.9921383 C 2.2364779,9.9842765 0,7.7477986 0,4.9921382 Z"
       copytype="single_stretched"
       prop_scale="1"
       scale_y_rel="false"
       spacing="0"
       normal_offset="0"
       tang_offset="0"
       prop_units="false"
       vertical_pattern="false"
       hide_knot="false"
       fuse_tolerance="0" /><inkscape:path-effect
       effect="skeletal"
       id="path-effect20"
       is_visible="true"
       lpeversion="1"
       pattern="M 0,4.9921382 C 0,2.2364779 2.2364779,0 4.9921382,0 c 2.7556604,0 4.9921383,2.2364779 4.9921383,4.9921382 0,2.7556604 -2.2364779,4.9921383 -4.9921383,4.9921383 C 2.2364779,9.9842765 0,7.7477986 0,4.9921382 Z"
       copytype="single_stretched"
       prop_scale="1"
       scale_y_rel="false"
       spacing="0"
       normal_offset="0"
       tang_offset="0"
       prop_units="false"
       vertical_pattern="false"
       hide_knot="false"
       fuse_tolerance="0" /><inkscape:path-effect
       effect="bspline"
       id="path-effect19"
       is_visible="true"
       lpeversion="1.3"
       weight="33.333333"
       steps="2"
       helper_size="0"
       apply_no_weight="true"
       apply_with_weight="true"
       only_selected="false"
       uniform="false" /></defs><g
     inkscape:groupmode="layer"
     id="layer3"
     inkscape:label="ROOF"
     style="display:inline"><path
       style="display:inline;fill:#ffffff;fill-opacity:1;stroke:#000000;stroke-width:0.0166503;stroke-linecap:butt;stroke-linejoin:miter;stroke-dasharray:none;stroke-opacity:1"
       d="M 0.5215694,1.4431539 0.91622259,1.2777237 1.9626869,1.6752226 1.6447939,1.8602708 Z"
       id="path304-6-4-0-3-9-0"
       sodipodi:nodetypes="ccccc"
       inkscape:label="roof-1" /><path
       style="display:inline;fill:#ffffff;fill-opacity:1;stroke:#000000;stroke-width:0.0166503;stroke-dasharray:none;stroke-opacity:1"
       d="M 3.2534753,1.2403275 2.706747,1.4498363 2.1911846,1.2419864 2.7240084,1.0271774 Z"
       id="path237-1-1-7-2-9-2"
       inkscape:label="roof-4"
       sodipodi:nodetypes="ccccc" /><path
       style="display:inline;fill:#ffffff;fill-opacity:1;stroke:#000000;stroke-width:0.0166503;stroke-linecap:butt;stroke-linejoin:miter;stroke-dasharray:none;stroke-opacity:1"
       d="M 3.7275882,1.4311934 3.3161123,1.2655434 2.2464633,1.6752917 2.5640758,1.8603309 Z"
       id="path219-0-3-8-7-1-4"
       sodipodi:nodetypes="ccccc"
       inkscape:label="roof-2" /><path
       style="display:inline;fill:#ffffff;fill-opacity:1;stroke:#000000;stroke-width:0.0166503;stroke-dasharray:none;stroke-opacity:1"
       d="M 1.5749665,1.0045597 2.104505,1.2180431 2.6592453,1.001105 2.104505,0.77778081 Z"
       id="path12-6-9-6-1-7-8"
       inkscape:label="roof-6"
       sodipodi:nodetypes="ccccc" /><path
       style="display:inline;fill:#ffffff;fill-opacity:1;fill-rule:nonzero;stroke:#000000;stroke-width:0.0166503;stroke-dasharray:none;stroke-opacity:1"
       d="m 1.5995162,1.4803333 0.4223552,0.1604309 0.082634,-0.048108 c 0,0 0.08759,0.048108 0.08759,0.048108 L 2.6182053,1.4838562 2.104505,1.2763502 Z"
       id="path306-8-8-6-0-2-39"
       inkscape:label="roof-3-mid"
       sodipodi:nodetypes="ccccccc" /><path
       style="display:inline;fill:#ffffff;fill-opacity:1;stroke:#000000;stroke-width:0.0166503;stroke-dasharray:none;stroke-opacity:1"
       d="M 0.99232443,1.2496929 1.515557,1.4484414 2.0316887,1.2473999 1.498865,1.0325905 Z"
       id="path300-7-5-0-0-3-0"
       inkscape:label="roof-5"
       sodipodi:nodetypes="ccccc" /></g><g
     inkscape:groupmode="layer"
     id="layer13"
     inkscape:label="DOOR"><path
       id="path56-7"
       style="display:none;fill:#ffffff;fill-opacity:1;stroke:#000000;stroke-width:6.90712;stroke-dasharray:none;stroke-opacity:1"
       d="m 87.912358,-79.85346 v 31.706715 H 38.56019 v 78.052419 l 11.655494,10.063645 h -95.862267 l 0.07117,17.86737 H 60.215639 l -43.466591,32.86351 v 75.699091 h 71.163236 v 25.35589 h 22.528596 v -25.35589 h 7.30164 l 28.44924,-30.91479 30.34558,30.91479 h 49.3111 l -55.4753,-55.50228 36.50934,-34.076976 -20.73294,-18.983345 h 65.17683 V 39.969319 H 136.39398 L 151.13101,29.905674 V -48.146745 H 110.44095 V -79.85346 Z M 72.099483,-14.960279 H 116.34306 V 13.46178 L 91.963868,33.176728 72.099483,13.46178 Z m 45.526267,72.796968 h 58.90009 L 146.4419,87.011309 Z M 88.256366,77.823083 121.46085,111.807 98.968952,132.26899 H 51.074963 v -27.92476 z" /><path
       style="display:inline;fill:#ffffff;fill-opacity:1;stroke:#000000;stroke-width:0.0166503;stroke-dasharray:none;stroke-opacity:1"
       d="m 2.1045055,1.6721539 -0.434635,0.2448262 v 1.7460867 h 0.1519177 c 0,0 -0.00557,-0.5319854 0.00443,-0.7978102 0.00167,-0.043663 0.030483,-0.098864 0.052851,-0.1303788 0.0366,-0.051567 0.091916,-0.088452 0.1010759,-0.09319 0.013495,-0.00698 0.109318,-0.060734 0.2476522,-0.00854 0.036243,0.013675 0.07613,0.049461 0.097813,0.075045 0.052148,0.061534 0.064215,0.1233199 0.068425,0.1684169 0.00154,0.016331 0.00134,0.5783936 0.00272,0.7864551 h 0.1422358 l 1.498e-4,-1.7460873 z"
       id="path5" /><path
       id="path17-6-4-5-7-5-2"
       style="display:inline;fill:#ffffff;fill-opacity:1;stroke:#000000;stroke-width:0.0166503;stroke-dasharray:none;stroke-opacity:1"
       d="m 2.1042335,2.6554036 c -0.00461,3.09e-5 -0.00918,2.832e-4 -0.013724,7.488e-4 -0.077546,0.00787 -0.1410282,0.051806 -0.1756222,0.1120553 -0.034594,0.060249 -0.040302,0.1368079 -0.040302,0.1368079 v 0.758049 H 2.344521 c 0,0 0.00225,-0.6695059 -0.0011,-0.7529827 C 2.3417675,2.8689269 2.3320637,2.8068807 2.289192,2.7530941 2.246649,2.6997142 2.1732113,2.6547282 2.1042341,2.6553968 Z m 0.1380712,0.5497062 c 0.021465,0 0.038865,0.017853 0.038865,0.03988 0,0.022029 -0.017401,0.039882 -0.038865,0.039882 -0.021465,0 -0.038865,-0.017857 -0.038865,-0.039882 0,-0.022029 0.017401,-0.03988 0.038865,-0.03988 z"
       inkscape:label="door-inner"
       sodipodi:nodetypes="ssscccssssssss" /></g><g
     inkscape:groupmode="layer"
     id="layer14"
     inkscape:label="OUTER-ROOF"><path
       style="display:inline;fill:#ffffff;fill-opacity:1;stroke:#000000;stroke-width:0.0166503;stroke-linecap:butt;stroke-linejoin:miter;stroke-dasharray:none;stroke-opacity:1"
       d="M 2.104505,0.68081266 4.1088567,1.5190037 4.1105067,1.3014297 3.3169805,0.96659641 3.311668,0.64962732 3.0254238,0.65045917 3.02786,0.84460306 2.1044914,0.45499108 0.09431295,1.3014291 V 1.524806 Z"
       id="path8-6-5-7-1-5-27"
       sodipodi:nodetypes="ccccccccccc"
       inkscape:label="outer-roof" /><rect
       style="display:inline;fill:#ffffff;fill-opacity:1;stroke:#000000;stroke-width:0.0166503;stroke-dasharray:none;stroke-opacity:1"
       id="rect19-9-4-9-7-8-3"
       width="0.4016999"
       height="0.092389405"
       x="2.9674175"
       y="0.52917993"
       inkscape:label="chimney"
       transform="matrix(0.9999954,-0.00303176,0.00287928,0.99999585,0,0)" /></g><g
     inkscape:groupmode="layer"
     id="layer8"
     inkscape:label="RIGHT-H"><path
       style="display:inline;fill:#ffffff;fill-opacity:1;fill-rule:nonzero;stroke:#000000;stroke-width:0.0166503;stroke-linecap:butt;stroke-linejoin:miter;stroke-dasharray:none;stroke-opacity:1"
       d="M 3.7672984,1.4625423 V 3.1885937 L 3.4471896,3.3136169 v -0.74534 L 2.9136419,2.7563956 2.9136118,3.5220208 2.5919517,3.6476503 V 1.9015172 L 2.9136097,1.7813823 2.9136398,2.4028335 3.4477503,2.211263 3.447156,1.5823951 Z"
       id="path301-3-7-3-3-4-1-7"
       sodipodi:nodetypes="ccccccccccccc"
       inkscape:label="H-right" /><path
       id="path302-5-4-4-5-5-4-9"
       style="display:inline;fill:#ffffff;fill-opacity:1;stroke:#000000;stroke-width:0.0166503;stroke-linecap:butt;stroke-linejoin:miter;stroke-dasharray:none;stroke-opacity:1"
       d="M 3.3917325,1.6028088 V 1.8501075 L 3.2117083,1.9157312 3.2111067,1.6702573 Z M 3.1491708,1.6934018 V 1.9385274 L 2.9692441,2.0041142 2.9690609,1.7609683 Z m 0.2425617,0.2143027 v 0.243164 L 3.2117083,2.2206617 V 1.9727874 Z M 3.1491708,1.9953955 3.148979,2.2455957 2.9692353,2.3064097 V 2.0648495 Z"
       inkscape:label="R-top-window"
       sodipodi:nodetypes="cccccccccccccccccccc" /><path
       id="path303-8-8-2-0-1-7-0"
       style="display:inline;fill:#ffffff;fill-opacity:1;stroke:#000000;stroke-width:0.0166503;stroke-linecap:butt;stroke-linejoin:miter;stroke-dasharray:none;stroke-opacity:1"
       inkscape:label="R-window-frame"
       d="M 3.3917325,2.639636 V 3.3341179 L 2.9692441,3.5000715 V 2.7838584 Z M 3.3135066,2.7658725 3.211708,2.8033996 v 0.1228072 l 0.047141,-0.017376 0.054656,-0.019595 z m -0.164336,0.060504 -0.099976,0.03673 -7.527e-4,0.1241293 0.1007299,-0.038001 z m 0.1643356,0.121607 -0.1017985,0.038819 V 3.108919 L 3.3135062,3.071577 Z m -0.1644655,0.062656 -0.1002928,0.038658 1.497e-4,0.1189788 0.1002785,-0.036647 z M 3.3135062,3.137862 3.2117077,3.176248 V 3.3095246 L 3.3135062,3.2714706 Z M 3.1491706,3.199828 3.048454,3.237805 3.048786,3.3721724 3.1492078,3.3334354 Z"
       sodipodi:nodetypes="cccccccccccccccccccccccccccccccccccc" /><text
       xml:space="preserve"
       style="font-size:661.458px;line-height:15.025;font-family:'Bright Hills';-inkscape-font-specification:'Bright Hills, Normal';text-align:center;letter-spacing:-52.9193px;word-spacing:0px;writing-mode:lr-tb;direction:ltr;text-anchor:middle;fill:#ffffff;fill-opacity:1;stroke:#000000;stroke-width:4.35401;stroke-dasharray:none;stroke-opacity:1"
       x="-3391.0183"
       y="-2610.9861"
       id="text37"><tspan
         sodipodi:role="line"
         id="tspan37"
         style="stroke-width:4.354"
         x="-3391.0183"
         y="-2610.9861" /></text><path
       style="font-size:936.545px;line-height:15.92;font-family:Quadrangle;-inkscape-font-specification:'Quadrangle, Normal';text-align:center;letter-spacing:-37.4636px;word-spacing:0px;text-anchor:middle;display:none;fill:#ffffff;stroke:#000000;stroke-width:3.882;stroke-dasharray:none"
       d="M -236.55165,72.728363 -435.09918,-27.48195 h -697.72602 v 661.23158 l 249.83636,3.80517 V 452.51969 l 447.88966,-7.04642 198.54753,-100.21032 z M -882.98884,299.65196 V 108.02615 l 395.37934,5.72981 v 191.62581 z"
       id="text38"
       aria-label="P"
       sodipodi:nodetypes="cccccccccccccc"
       transform="matrix(0.70751084,0.24776701,0,1.4134059,0,0)"
       sodipodi:insensitive="true" /><text
       xml:space="preserve"
       style="font-style:normal;font-variant:normal;font-weight:normal;font-stretch:normal;font-size:1374.33px;line-height:15.92;font-family:Quantico;-inkscape-font-specification:'Quantico, Normal';font-variant-ligatures:normal;font-variant-caps:normal;font-variant-numeric:normal;font-variant-east-asian:normal;text-align:center;letter-spacing:-54.9757px;word-spacing:0px;writing-mode:lr-tb;direction:ltr;text-anchor:middle;display:none;fill:#ffffff;fill-opacity:1;stroke:#000000;stroke-width:4.5232;stroke-dasharray:none;stroke-opacity:1"
       x="-480.33014"
       y="927.66443"
       id="text38-2"
       transform="matrix(1.0382315,0.38723956,0,0.96317633,0,0)"><tspan
         sodipodi:role="line"
         id="tspan38-4"
         style="font-style:normal;font-variant:normal;font-weight:normal;font-stretch:normal;font-size:1374.33px;line-height:15.92;font-family:Quantico;-inkscape-font-specification:'Quantico, Normal';font-variant-ligatures:normal;font-variant-caps:normal;font-variant-numeric:normal;font-variant-east-asian:normal;stroke-width:4.5232"
         x="0"
         y="0">P</tspan></text><path
       id="path303-8-4-1-2-8-9"
       style="display:none;fill:none;fill-opacity:1;stroke:#000000;stroke-width:19.7976;stroke-linecap:butt;stroke-linejoin:miter;stroke-dasharray:none;stroke-opacity:1"
       inkscape:label="window-frame"
       d="m -1669.87,985.97132 v 461.62728 l 707.44591,-18.2459 V 972.61422 Z m 130.988,65.04958 h 170.4577 v 82.62 l -78.9369,-8.9537 -91.5208,-10.0959 z"
       sodipodi:nodetypes="ccccccccccc" /><path
       id="path24"
       style="fill:#ffffff;fill-opacity:1;stroke:#000000;stroke-width:0.0166503;stroke-dasharray:none;stroke-opacity:1"
       inkscape:label="garage-door"
       d="M 0.86513394,2.8356686 V 3.3689688 L 1.6180823,3.6475194 V 3.1049923 Z M 0.91526383,2.9225125 1.199443,3.0236311 1.1987794,3.1365417 0.91460665,3.0343289 Z M 1.2774615,3.0505335 1.5616415,3.1516521 1.5609779,3.2645626 1.2768045,3.16235 Z M 0.91526383,3.0722483 1.199443,3.1733669 1.1987794,3.2862771 0.91460665,3.1840648 Z M 1.2774615,3.2002698 1.5616415,3.3013871 1.5609779,3.4142984 1.2768053,3.3120859 Z M 0.91526383,3.2248694 1.199443,3.3259881 1.1987794,3.4388983 0.91460665,3.3366859 Z M 1.2774615,3.3528908 1.5616415,3.454009 1.5609779,3.5669197 1.2768053,3.4647065 Z" /></g><g
     inkscape:groupmode="layer"
     id="layer9"
     inkscape:label="LEFT-H"><path
       id="path10"
       style="display:none;fill:#ffffff;fill-opacity:1;stroke:#000000;stroke-width:13.2292;stroke-dasharray:none"
       inkscape:label="P-letter"
       d="m -811.92822,-320.68689 v 934.58895 l 176.76182,67.2791 V 378.65957 l 457.36123,171.27379 V -100.8941 Z m 176.91323,190.98266 291.98683,115.943313 V 321.82067 L -635.01499,205.87684 Z" /><path
       id="path302-5-4-4-5-5-4-9-8-2"
       style="display:inline;fill:#ffffff;fill-opacity:1;stroke:#000000;stroke-width:0.0166503;stroke-linecap:butt;stroke-linejoin:miter;stroke-dasharray:none;stroke-opacity:1"
       inkscape:label="R-top-window"
       d="M 0.49253483,1.4850967 V 3.2362072 L 0.80552358,3.3496864 0.80628131,2.7595784 1.6180826,3.053908 V 1.8931791 Z M 0.80654988,1.8581242 1.324817,2.0460291 V 2.6375673 L 0.80654988,2.4496625 Z m 0.0585843,0.072736 v 0.2200564 l 0.17165572,0.065516 4.408e-4,-0.2231771 z m 0.23128662,0.083855 v 0.2244763 l 0.1715623,0.06548 1.749e-4,-0.227691 z M 0.86513413,2.2074135 v 0.2118617 l 0.17165577,0.06208 V 2.2696495 Z m 0.23128647,0.083856 v 0.2118623 l 0.1715615,0.062203 V 2.3534709 Z"
       sodipodi:nodetypes="cccccccccccccccccccccccccccccccc" /></g><g
     inkscape:groupmode="layer"
     id="layer12"
     inkscape:label="Text"><text
       xml:space="preserve"
       style="font-style:normal;font-variant:normal;font-weight:normal;font-stretch:normal;font-size:661.458px;line-height:1;font-family:'Bright Hills';-inkscape-font-specification:'Bright Hills, Normal';font-variant-ligatures:normal;font-variant-caps:normal;font-variant-numeric:normal;font-variant-east-asian:normal;text-align:center;letter-spacing:0px;word-spacing:0px;writing-mode:lr-tb;direction:ltr;text-anchor:middle;display:none;fill:#ffffff;fill-opacity:1;stroke-width:2.19604"
       id="text1-4-0-4-8-7"
       inkscape:label="hawkins"
       x="5092.0225"
       y="-2188.2139"><tspan
         sodipodi:role="line"
         id="tspan72"
         x="0"
         y="0"
         style="font-style:normal;font-variant:normal;font-weight:normal;font-stretch:normal;font-size:661.458px;line-height:1;font-family:'Bright Hills';-inkscape-font-specification:'Bright Hills, Normal';font-variant-ligatures:normal;font-variant-caps:normal;font-variant-numeric:normal;font-variant-east-asian:normal;fill:#ffffff;fill-opacity:1;stroke-width:2.19604">Park<tspan
   style="font-size:529.167px"
   id="tspan74">&amp;</tspan></tspan><tspan
         sodipodi:role="line"
         id="tspan73"
         x="0"
         y="0">Hawkins</tspan></text></g></svg>
