<?xml version="1.0" encoding="UTF-8" standalone="no"?>
<!-- Created with Inkscape (http://www.inkscape.org/) -->

<svg
   width="32"
   height="32"
   viewBox="0 0 8.4666667 8.466666"
   version="1.1"
   id="svg1"
   xml:space="preserve"
   sodipodi:docname="PH-favicon-wht-32x32.svg"
   inkscape:version="1.4.3 (0d15f75, 2025-12-25)"
   inkscape:export-filename="PH-blk-logo.png"
   inkscape:export-xdpi="96"
   inkscape:export-ydpi="96"
   xmlns:inkscape="http://www.inkscape.org/namespaces/inkscape"
   xmlns:sodipodi="http://sodipodi.sourceforge.net/DTD/sodipodi-0.dtd"
   xmlns="http://www.w3.org/2000/svg"
   xmlns:svg="http://www.w3.org/2000/svg"><sodipodi:namedview
     id="namedview1"
     pagecolor="#505050"
     bordercolor="#ffffff"
     borderopacity="1"
     inkscape:showpageshadow="0"
     inkscape:pageopacity="0"
     inkscape:pagecheckerboard="1"
     inkscape:deskcolor="#505050"
     inkscape:document-units="px"
     inkscape:export-bgcolor="#ffffff00"
     showgrid="true"
     inkscape:zoom="16.543896"
     inkscape:cx="20.158492"
     inkscape:cy="18.586916"
     inkscape:window-width="1658"
     inkscape:window-height="1052"
     inkscape:window-x="70"
     inkscape:window-y="37"
     inkscape:window-maximized="0"
     inkscape:current-layer="layer13"
     showguides="true"><inkscape:grid
       id="grid8"
       units="mm"
       originx="0"
       originy="0"
       spacingx="0.99999998"
       spacingy="1"
       empcolor="#0099e5"
       empopacity="0.30196078"
       color="#0099e5"
       opacity="0.14901961"
       empspacing="11"
       enabled="false"
       visible="false" /><inkscape:grid
       type="axonomgrid"
       id="grid105"
       units="px"
       originx="793.70081"
       originy="561.25983"
       spacingx="0.99999998"
       spacingy="1"
       empcolor="#ff0000"
       empopacity="0.30196078"
       color="#dee500"
       opacity="0.14901961"
       empspacing="52"
       dotted="false"
       gridanglex="22.4"
       gridanglez="34"
       enabled="false"
       visible="true" /><inkscape:grid
       type="axonomgrid"
       id="grid106"
       units="mm"
       originx="0"
       originy="0"
       spacingx="0.99999998"
       spacingy="1"
       empcolor="#0099e5"
       empopacity="0.30196078"
       color="#0099e5"
       opacity="0.14901961"
       empspacing="5"
       dotted="false"
       gridanglex="30"
       gridanglez="30"
       enabled="false"
       visible="true" /><inkscape:grid
       type="axonomgrid"
       id="grid107"
       units="mm"
       originx="0"
       originy="0"
       spacingx="0.99999998"
       spacingy="1"
       empcolor="#0099e5"
       empopacity="0.30196078"
       color="#0099e5"
       opacity="0.14901961"
       empspacing="5"
       dotted="false"
       gridanglex="30"
       gridanglez="30"
       enabled="false"
       visible="true" /><inkscape:grid
       type="modular"
       id="grid151"
       units="mm"
       originx="0"
       originy="0"
       spacingx="39.999999"
       spacingy="40.000001"
       empcolor="#0047cb"
       empopacity="0.30196078"
       color="#0099e5"
       opacity="0.14901961"
       empspacing="0"
       marginx="0"
       marginy="0"
       gapx="9.9999998"
       gapy="10"
       enabled="false"
       visible="true" /><inkscape:grid
       id="grid152"
       units="mm"
       originx="0"
       originy="0"
       spacingx="0.99999998"
       spacingy="1"
       empcolor="#0099e5"
       empopacity="0.30196078"
       color="#0099e5"
       opacity="0.14901961"
       empspacing="5"
       enabled="false"
       visible="true" /></sodipodi:namedview><defs
     id="defs1"><inkscape:path-effect
       effect="fillet_chamfer"
       id="path-effect17"
       is_visible="true"
       lpeversion="1"
       nodesatellites_param="F,0,0,1,0,0,0,1 @ F,0,0,1,0,0,0,1 @ F,0,0,1,0,0,0,1 @ F,0,0,1,0,0,0,1 @ F,0,0,1,0,0,0,1"
       radius="0"
       unit="px"
       method="auto"
       mode="F"
       chamfer_steps="1"
       flexible="false"
       use_knot_distance="true"
       apply_no_radius="true"
       apply_with_radius="true"
       only_selected="false"
       hide_knots="false" /><inkscape:path-effect
       effect="fillet_chamfer"
       id="path-effect16"
       is_visible="true"
       lpeversion="1"
       nodesatellites_param="F,0,0,1,0,0,0,1 @ F,0,0,1,0,0,0,1 @ F,0,0,1,0,0,0,1 @ F,0,0,1,0,0,0,1 @ F,0,0,1,0,0,0,1"
       radius="0"
       unit="px"
       method="auto"
       mode="F"
       chamfer_steps="1"
       flexible="false"
       use_knot_distance="true"
       apply_no_radius="true"
       apply_with_radius="true"
       only_selected="false"
       hide_knots="false" /><inkscape:path-effect
       effect="skeletal"
       id="path-effect22"
       is_visible="true"
       lpeversion="1"
       pattern="M 0,4.9921382 C 0,2.2364779 2.2364779,0 4.9921382,0 c 2.7556604,0 4.9921383,2.2364779 4.9921383,4.9921382 0,2.7556604 -2.2364779,4.9921383 -4.9921383,4.9921383 C 2.2364779,9.9842765 0,7.7477986 0,4.9921382 Z"
       copytype="single_stretched"
       prop_scale="1"
       scale_y_rel="false"
       spacing="0"
       normal_offset="0"
       tang_offset="0"
       prop_units="false"
       vertical_pattern="false"
       hide_knot="false"
       fuse_tolerance="0" /><inkscape:path-effect
       effect="skeletal"
       id="path-effect20"
       is_visible="true"
       lpeversion="1"
       pattern="M 0,4.9921382 C 0,2.2364779 2.2364779,0 4.9921382,0 c 2.7556604,0 4.9921383,2.2364779 4.9921383,4.9921382 0,2.7556604 -2.2364779,4.9921383 -4.9921383,4.9921383 C 2.2364779,9.9842765 0,7.7477986 0,4.9921382 Z"
       copytype="single_stretched"
       prop_scale="1"
       scale_y_rel="false"
       spacing="0"
       normal_offset="0"
       tang_offset="0"
       prop_units="false"
       vertical_pattern="false"
       hide_knot="false"
       fuse_tolerance="0" /><inkscape:path-effect
       effect="bspline"
       id="path-effect19"
       is_visible="true"
       lpeversion="1.3"
       weight="33.333333"
       steps="2"
       helper_size="0"
       apply_no_weight="true"
       apply_with_weight="true"
       only_selected="false"
       uniform="false" /></defs><g
     inkscape:groupmode="layer"
     id="layer3"
     inkscape:label="ROOF"
     style="display:inline"><path
       style="display:inline;fill:#ffffff;fill-opacity:1;stroke:#000000;stroke-width:0.0341472;stroke-linecap:butt;stroke-linejoin:miter;stroke-dasharray:none;stroke-opacity:1"
       d="M 1.043047,3.0792249 1.8399257,2.734634 3.9529334,3.5626235 3.3110478,3.9480788 Z"
       id="path304-6-4-0-3-9-0"
       sodipodi:nodetypes="ccccc"
       inkscape:label="roof-1" /><path
       style="display:inline;fill:#ffffff;fill-opacity:1;stroke:#000000;stroke-width:0.0341472;stroke-dasharray:none;stroke-opacity:1"
       d="M 6.559277,2.6567377 5.4553302,3.0931444 4.414313,2.6601933 5.490184,2.2127465 Z"
       id="path237-1-1-7-2-9-2"
       inkscape:label="roof-4"
       sodipodi:nodetypes="ccccc" /><path
       style="display:inline;fill:#ffffff;fill-opacity:1;stroke:#000000;stroke-width:0.0341472;stroke-linecap:butt;stroke-linejoin:miter;stroke-dasharray:none;stroke-opacity:1"
       d="M 7.5165999,3.0543112 6.685753,2.7092625 4.525931,3.5627676 5.1672503,3.948204 Z"
       id="path219-0-3-8-7-1-4"
       sodipodi:nodetypes="ccccc"
       inkscape:label="roof-2" /><path
       style="display:inline;fill:#ffffff;fill-opacity:1;stroke:#000000;stroke-width:0.0341472;stroke-dasharray:none;stroke-opacity:1"
       d="M 3.1700532,2.1656338 4.2392906,2.6103194 5.3594152,2.1584378 4.2392906,1.6932537 Z"
       id="path12-6-9-6-1-7-8"
       inkscape:label="roof-6"
       sodipodi:nodetypes="ccccc" /><path
       style="display:inline;fill:#ffffff;fill-opacity:1;fill-rule:nonzero;stroke:#000000;stroke-width:0.0341472;stroke-dasharray:none;stroke-opacity:1"
       d="M 3.2196235,3.1566695 4.0724379,3.4908469 4.2392906,3.3906391 c 0,0 0.1768595,0.1002078 0.1768595,0.1002078 L 5.2765478,3.1640076 4.2392906,2.731773 Z"
       id="path306-8-8-6-0-2-39"
       inkscape:label="roof-3-mid"
       sodipodi:nodetypes="ccccccc" /><path
       style="display:inline;fill:#ffffff;fill-opacity:1;stroke:#000000;stroke-width:0.0341472;stroke-dasharray:none;stroke-opacity:1"
       d="M 1.9935896,2.676246 3.0500941,3.0902389 4.0922609,2.6714696 3.0163899,2.2240219 Z"
       id="path300-7-5-0-0-3-0"
       inkscape:label="roof-5"
       sodipodi:nodetypes="ccccc" /></g><g
     inkscape:groupmode="layer"
     id="layer13"
     inkscape:label="DOOR"><path
       id="path56-7"
       style="display:none;fill:#ffffff;fill-opacity:1;stroke:#000000;stroke-width:6.90712;stroke-dasharray:none;stroke-opacity:1"
       d="m 87.912358,-79.85346 v 31.706715 H 38.56019 v 78.052419 l 11.655494,10.063645 h -95.862267 l 0.07117,17.86737 H 60.215639 l -43.466591,32.86351 v 75.699091 h 71.163236 v 25.35589 h 22.528596 v -25.35589 h 7.30164 l 28.44924,-30.91479 30.34558,30.91479 h 49.3111 l -55.4753,-55.50228 36.50934,-34.076976 -20.73294,-18.983345 h 65.17683 V 39.969319 H 136.39398 L 151.13101,29.905674 V -48.146745 H 110.44095 V -79.85346 Z M 72.099483,-14.960279 H 116.34306 V 13.46178 L 91.963868,33.176728 72.099483,13.46178 Z m 45.526267,72.796968 h 58.90009 L 146.4419,87.011309 Z M 88.256366,77.823083 121.46085,111.807 98.968952,132.26899 H 51.074963 v -27.92476 z" /><path
       style="display:inline;fill:#ffffff;fill-opacity:1;stroke:#000000;stroke-width:0.0341472;stroke-dasharray:none;stroke-opacity:1"
       d="M 4.2392918,3.5562315 3.361682,4.0662041 v 3.6370958 h 0.3067505 c 0,0 -0.011261,-1.1081245 0.00894,-1.6618374 0.00337,-0.090949 0.061551,-0.2059328 0.106717,-0.2715787 C 3.8579915,5.6624675 3.969684,5.5856386 3.988181,5.5757701 4.01543,5.5612361 4.2089145,5.4492624 4.4882371,5.5579871 c 0.073181,0.028485 0.1537193,0.1030271 0.1975011,0.15632 0.1052945,0.1281761 0.1296623,0.2568748 0.1381632,0.3508119 0.00309,0.034017 0.0027,1.204793 0.00551,1.6381847 h 0.2872004 l 3.026e-4,-3.637097 z"
       id="path5" /><path
       id="path17-6-4-5-7-5-2"
       style="display:inline;fill:#ffffff;fill-opacity:1;stroke:#000000;stroke-width:0.0341472;stroke-dasharray:none;stroke-opacity:1"
       d="m 4.2387425,5.604339 c -0.00929,6.46e-5 -0.01853,5.901e-4 -0.027712,0.00156 C 4.0544501,5.622292 3.9262682,5.7138116 3.8564163,5.83931 3.7865643,5.9648085 3.7750383,6.1242806 3.7750383,6.1242806 v 1.5790149 h 0.9488899 c 0,0 0.00456,-1.3945799 -0.00221,-1.5684619 C 4.7183774,6.0491085 4.6987732,5.9198657 4.6122088,5.8078281 4.5263057,5.6966373 4.3780219,5.6029325 4.238744,5.6043251 Z M 4.517534,6.7493763 c 0.043342,0 0.078475,0.037189 0.078475,0.08307 0,0.045887 -0.035135,0.083075 -0.078475,0.083075 -0.043342,0 -0.078475,-0.037197 -0.078475,-0.083075 0,-0.045887 0.035135,-0.08307 0.078475,-0.08307 z"
       inkscape:label="door-inner"
       sodipodi:nodetypes="ssscccssssssss" /></g><g
     inkscape:groupmode="layer"
     id="layer14"
     inkscape:label="OUTER-ROOF"><path
       style="display:inline;fill:#ffffff;fill-opacity:1;stroke:#000000;stroke-width:0.0341472;stroke-linecap:butt;stroke-linejoin:miter;stroke-dasharray:none;stroke-opacity:1"
       d="M 4.2392906,1.4912692 8.2864522,3.2372199 8.2897749,2.7840136 6.6875008,2.0865565 6.6767815,1.4263103 6.0988009,1.4280429 6.1037258,1.8324445 4.2392633,1.0208832 0.18033617,2.7840123 v 0.4652938 z"
       id="path8-6-5-7-1-5-27"
       sodipodi:nodetypes="ccccccccccc"
       inkscape:label="outer-roof" /><rect
       style="display:inline;fill:#ffffff;fill-opacity:1;stroke:#000000;stroke-width:0.0341472;stroke-dasharray:none;stroke-opacity:1"
       id="rect19-9-4-9-7-8-3"
       width="0.81110764"
       height="0.19244693"
       x="5.9814696"
       y="1.1753863"
       inkscape:label="chimney"
       transform="matrix(0.99999511,-0.00312757,0.00279107,0.9999961,0,0)" /></g><g
     inkscape:groupmode="layer"
     id="layer8"
     inkscape:label="RIGHT-H"><path
       style="display:inline;fill:#ffffff;fill-opacity:1;fill-rule:nonzero;stroke:#000000;stroke-width:0.0341472;stroke-linecap:butt;stroke-linejoin:miter;stroke-dasharray:none;stroke-opacity:1"
       d="M 7.5967821,3.1196108 V 6.7149733 L 6.9504224,6.9753963 V 5.4228543 L 5.8730896,5.8147054 5.8730288,7.4095015 5.2235369,7.6711875 V 4.0339949 L 5.8730246,3.783754 5.8730853,5.0782361 6.9515547,4.679195 6.9503547,3.3692642 Z"
       id="path301-3-7-3-3-4-1-7"
       sodipodi:nodetypes="ccccccccccccc"
       inkscape:label="H-right" /><path
       id="path302-5-4-4-5-5-4-9"
       style="display:inline;fill:#ffffff;fill-opacity:1;stroke:#000000;stroke-width:0.0341472;stroke-linecap:butt;stroke-linejoin:miter;stroke-dasharray:none;stroke-opacity:1"
       d="M 6.8384442,3.4117858 V 3.9269085 L 6.4749415,4.0636028 6.4737269,3.552281 Z M 6.3486667,3.6004904 V 4.1110867 L 5.9853608,4.2477045 5.9849909,3.7412319 Z M 6.8384442,4.0468826 V 4.5533934 L 6.4749415,4.6987714 V 4.1824497 Z M 6.3486667,4.2295431 6.3482793,4.7507098 5.9853431,4.8773841 V 4.3742158 Z"
       inkscape:label="R-top-window"
       sodipodi:nodetypes="cccccccccccccccccccc" /><path
       id="path303-8-8-2-0-1-7-0"
       style="display:inline;fill:#ffffff;fill-opacity:1;stroke:#000000;stroke-width:0.0341472;stroke-linecap:butt;stroke-linejoin:miter;stroke-dasharray:none;stroke-opacity:1"
       inkscape:label="R-window-frame"
       d="m 6.8384442,5.5714951 v 1.446605 L 5.9853608,7.3637809 V 5.8719103 Z M 6.6804911,5.8344458 6.4749415,5.912615 v 0.2558072 l 0.095187,-0.036194 0.1103623,-0.040816 z M 6.3486667,5.9604747 6.1467974,6.0369817 6.1452774,6.295543 6.3486699,6.216388 Z m 0.3318244,0.2533072 -0.2055496,0.080859 v 0.2543685 l 0.2055496,-0.077782 z m -0.3320867,0.1305133 -0.2025094,0.080525 3.023e-4,0.2478327 0.202481,-0.076333 z m 0.3320867,0.2650036 -0.2055496,0.079956 v 0.2776163 l 0.2055496,-0.079265 z m -0.3318244,0.129075 -0.2033664,0.079106 6.705e-4,0.2798871 0.2027706,-0.080688 z"
       sodipodi:nodetypes="cccccccccccccccccccccccccccccccccccc" /><text
       xml:space="preserve"
       style="font-size:661.458px;line-height:15.025;font-family:'Bright Hills';-inkscape-font-specification:'Bright Hills, Normal';text-align:center;letter-spacing:-52.9193px;word-spacing:0px;writing-mode:lr-tb;direction:ltr;text-anchor:middle;fill:#ffffff;fill-opacity:1;stroke:#000000;stroke-width:4.35401;stroke-dasharray:none;stroke-opacity:1"
       x="-3391.0183"
       y="-2610.9861"
       id="text37"><tspan
         sodipodi:role="line"
         id="tspan37"
         style="stroke-width:4.354"
         x="-3391.0183"
         y="-2610.9861" /></text><path
       style="font-size:936.545px;line-height:15.92;font-family:Quadrangle;-inkscape-font-specification:'Quadrangle, Normal';text-align:center;letter-spacing:-37.4636px;word-spacing:0px;text-anchor:middle;display:none;fill:#ffffff;stroke:#000000;stroke-width:3.882;stroke-dasharray:none"
       d="M -236.55165,72.728363 -435.09918,-27.48195 h -697.72602 v 661.23158 l 249.83636,3.80517 V 452.51969 l 447.88966,-7.04642 198.54753,-100.21032 z M -882.98884,299.65196 V 108.02615 l 395.37934,5.72981 v 191.62581 z"
       id="text38"
       aria-label="P"
       sodipodi:nodetypes="cccccccccccccc"
       transform="matrix(0.70751084,0.24776701,0,1.4134059,0,0)"
       sodipodi:insensitive="true" /><text
       xml:space="preserve"
       style="font-style:normal;font-variant:normal;font-weight:normal;font-stretch:normal;font-size:1374.33px;line-height:15.92;font-family:Quantico;-inkscape-font-specification:'Quantico, Normal';font-variant-ligatures:normal;font-variant-caps:normal;font-variant-numeric:normal;font-variant-east-asian:normal;text-align:center;letter-spacing:-54.9757px;word-spacing:0px;writing-mode:lr-tb;direction:ltr;text-anchor:middle;display:none;fill:#ffffff;fill-opacity:1;stroke:#000000;stroke-width:4.5232;stroke-dasharray:none;stroke-opacity:1"
       x="-480.33014"
       y="927.66443"
       id="text38-2"
       transform="matrix(1.0382315,0.38723956,0,0.96317633,0,0)"><tspan
         sodipodi:role="line"
         id="tspan38-4"
         style="font-style:normal;font-variant:normal;font-weight:normal;font-stretch:normal;font-size:1374.33px;line-height:15.92;font-family:Quantico;-inkscape-font-specification:'Quantico, Normal';font-variant-ligatures:normal;font-variant-caps:normal;font-variant-numeric:normal;font-variant-east-asian:normal;stroke-width:4.5232"
         x="0"
         y="0">P</tspan></text><path
       id="path303-8-4-1-2-8-9"
       style="display:none;fill:none;fill-opacity:1;stroke:#000000;stroke-width:19.7976;stroke-linecap:butt;stroke-linejoin:miter;stroke-dasharray:none;stroke-opacity:1"
       inkscape:label="window-frame"
       d="m -1669.87,985.97132 v 461.62728 l 707.44591,-18.2459 V 972.61422 Z m 130.988,65.04958 h 170.4577 v 82.62 l -78.9369,-8.9537 -91.5208,-10.0959 z"
       sodipodi:nodetypes="ccccccccccc" /><path
       id="path24"
       style="fill:#ffffff;fill-opacity:1;stroke:#000000;stroke-width:0.0341472;stroke-dasharray:none;stroke-opacity:1"
       inkscape:label="garage-door"
       d="M 1.7367682,5.9798309 V 7.0906942 L 3.257112,7.6709148 V 6.5408319 Z M 1.8379898,6.1607265 2.411801,6.3713563 2.410461,6.606549 1.8366628,6.39364 Z M 2.5693349,6.4273942 3.1431477,6.6380239 3.1418077,6.8732165 2.5680082,6.6603075 Z M 1.8379898,6.4726262 2.411801,6.6832558 2.410461,6.9184478 1.8366628,6.7055394 Z m 0.7313451,0.2666685 0.5738128,0.2106271 -0.00134,0.235194 -0.573798,-0.2129085 z M 1.8379898,6.7905357 2.411801,7.0011655 2.4104609,7.2363575 1.8366628,7.023449 Z m 0.7313451,0.266668 0.5738128,0.2106292 -0.00134,0.2351927 -0.5737979,-0.2129098 z" /></g><g
     inkscape:groupmode="layer"
     id="layer9"
     inkscape:label="LEFT-H"><path
       id="path10"
       style="display:none;fill:#ffffff;fill-opacity:1;stroke:#000000;stroke-width:13.2292;stroke-dasharray:none"
       inkscape:label="P-letter"
       d="m -811.92822,-320.68689 v 934.58895 l 176.76182,67.2791 V 378.65957 l 457.36123,171.27379 V -100.8941 Z m 176.91323,190.98266 291.98683,115.943313 V 321.82067 L -635.01499,205.87684 Z" /><path
       id="path302-5-4-4-5-5-4-9-8-2"
       style="display:inline;fill:#ffffff;fill-opacity:1;stroke:#000000;stroke-width:0.0341472;stroke-linecap:butt;stroke-linejoin:miter;stroke-dasharray:none;stroke-opacity:1"
       inkscape:label="R-top-window"
       d="M 0.98442076,3.1665917 V 6.8141521 L 1.6164037,7.0505291 1.6179337,5.821335 3.2571126,6.4344231 V 4.0166267 Z M 1.618476,3.9436073 2.6649545,4.3350128 V 5.5671861 L 1.618476,5.1757807 Z m 0.1182926,0.1515079 v 0.458377 l 0.3466051,0.1364704 8.901e-4,-0.4648777 z m 0.4670107,0.1746715 v 0.4675829 l 0.3464167,0.1363953 3.531e-4,-0.47428 z M 1.7367686,4.6711763 V 5.1124841 L 2.0833737,5.2417964 V 4.800814 Z m 0.4670107,0.174672 v 0.4413082 l 0.3464149,0.1295663 v -0.441309 z"
       sodipodi:nodetypes="cccccccccccccccccccccccccccccccc" /></g><g
     inkscape:groupmode="layer"
     id="layer12"
     inkscape:label="Text"><text
       xml:space="preserve"
       style="font-style:normal;font-variant:normal;font-weight:normal;font-stretch:normal;font-size:661.458px;line-height:1;font-family:'Bright Hills';-inkscape-font-specification:'Bright Hills, Normal';font-variant-ligatures:normal;font-variant-caps:normal;font-variant-numeric:normal;font-variant-east-asian:normal;text-align:center;letter-spacing:0px;word-spacing:0px;writing-mode:lr-tb;direction:ltr;text-anchor:middle;display:none;fill:#ffffff;fill-opacity:1;stroke-width:2.19604"
       id="text1-4-0-4-8-7"
       inkscape:label="hawkins"
       x="5092.0225"
       y="-2188.2139"><tspan
         sodipodi:role="line"
         id="tspan72"
         x="0"
         y="0"
         style="font-style:normal;font-variant:normal;font-weight:normal;font-stretch:normal;font-size:661.458px;line-height:1;font-family:'Bright Hills';-inkscape-font-specification:'Bright Hills, Normal';font-variant-ligatures:normal;font-variant-caps:normal;font-variant-numeric:normal;font-variant-east-asian:normal;fill:#ffffff;fill-opacity:1;stroke-width:2.19604">Park<tspan
   style="font-size:529.167px"
   id="tspan74">&amp;</tspan></tspan><tspan
         sodipodi:role="line"
         id="tspan73"
         x="0"
         y="0">Hawkins</tspan></text></g></svg>
