<?xml version="1.0" encoding="UTF-8" standalone="no"?>
<!-- Created with Inkscape (http://www.inkscape.org/) -->

<svg
   width="180"
   height="180"
   viewBox="0 0 47.625 47.624996"
   version="1.1"
   id="svg1"
   xml:space="preserve"
   sodipodi:docname="PH-favicon-wht-apple-icon.svg"
   inkscape:version="1.4.3 (0d15f75, 2025-12-25)"
   inkscape:export-filename="PH-blk-logo.png"
   inkscape:export-xdpi="96"
   inkscape:export-ydpi="96"
   xmlns:inkscape="http://www.inkscape.org/namespaces/inkscape"
   xmlns:sodipodi="http://sodipodi.sourceforge.net/DTD/sodipodi-0.dtd"
   xmlns="http://www.w3.org/2000/svg"
   xmlns:svg="http://www.w3.org/2000/svg"><sodipodi:namedview
     id="namedview1"
     pagecolor="#505050"
     bordercolor="#ffffff"
     borderopacity="1"
     inkscape:showpageshadow="0"
     inkscape:pageopacity="0"
     inkscape:pagecheckerboard="1"
     inkscape:deskcolor="#505050"
     inkscape:document-units="px"
     inkscape:export-bgcolor="#ffffff00"
     showgrid="true"
     inkscape:zoom="1.4428976"
     inkscape:cx="159.05495"
     inkscape:cy="91.136058"
     inkscape:window-width="1658"
     inkscape:window-height="1052"
     inkscape:window-x="70"
     inkscape:window-y="33"
     inkscape:window-maximized="0"
     inkscape:current-layer="layer9"
     showguides="true"><inkscape:grid
       id="grid8"
       units="mm"
       originx="0"
       originy="0"
       spacingx="0.99999998"
       spacingy="1"
       empcolor="#0099e5"
       empopacity="0.30196078"
       color="#0099e5"
       opacity="0.14901961"
       empspacing="11"
       enabled="false"
       visible="false" /><inkscape:grid
       type="axonomgrid"
       id="grid105"
       units="px"
       originx="793.70081"
       originy="561.25983"
       spacingx="0.99999998"
       spacingy="1"
       empcolor="#ff0000"
       empopacity="0.30196078"
       color="#dee500"
       opacity="0.14901961"
       empspacing="52"
       dotted="false"
       gridanglex="22.4"
       gridanglez="34"
       enabled="false"
       visible="true" /><inkscape:grid
       type="axonomgrid"
       id="grid106"
       units="mm"
       originx="0"
       originy="0"
       spacingx="0.99999998"
       spacingy="1"
       empcolor="#0099e5"
       empopacity="0.30196078"
       color="#0099e5"
       opacity="0.14901961"
       empspacing="5"
       dotted="false"
       gridanglex="30"
       gridanglez="30"
       enabled="false"
       visible="true" /><inkscape:grid
       type="axonomgrid"
       id="grid107"
       units="mm"
       originx="0"
       originy="0"
       spacingx="0.99999998"
       spacingy="1"
       empcolor="#0099e5"
       empopacity="0.30196078"
       color="#0099e5"
       opacity="0.14901961"
       empspacing="5"
       dotted="false"
       gridanglex="30"
       gridanglez="30"
       enabled="false"
       visible="true" /><inkscape:grid
       type="modular"
       id="grid151"
       units="mm"
       originx="0"
       originy="0"
       spacingx="39.999999"
       spacingy="40.000001"
       empcolor="#0047cb"
       empopacity="0.30196078"
       color="#0099e5"
       opacity="0.14901961"
       empspacing="0"
       marginx="0"
       marginy="0"
       gapx="9.9999998"
       gapy="10"
       enabled="false"
       visible="true" /><inkscape:grid
       id="grid152"
       units="mm"
       originx="0"
       originy="0"
       spacingx="0.99999998"
       spacingy="1"
       empcolor="#0099e5"
       empopacity="0.30196078"
       color="#0099e5"
       opacity="0.14901961"
       empspacing="5"
       enabled="false"
       visible="true" /></sodipodi:namedview><defs
     id="defs1"><inkscape:path-effect
       effect="fillet_chamfer"
       id="path-effect17"
       is_visible="true"
       lpeversion="1"
       nodesatellites_param="F,0,0,1,0,0,0,1 @ F,0,0,1,0,0,0,1 @ F,0,0,1,0,0,0,1 @ F,0,0,1,0,0,0,1 @ F,0,0,1,0,0,0,1"
       radius="0"
       unit="px"
       method="auto"
       mode="F"
       chamfer_steps="1"
       flexible="false"
       use_knot_distance="true"
       apply_no_radius="true"
       apply_with_radius="true"
       only_selected="false"
       hide_knots="false" /><inkscape:path-effect
       effect="fillet_chamfer"
       id="path-effect16"
       is_visible="true"
       lpeversion="1"
       nodesatellites_param="F,0,0,1,0,0,0,1 @ F,0,0,1,0,0,0,1 @ F,0,0,1,0,0,0,1 @ F,0,0,1,0,0,0,1 @ F,0,0,1,0,0,0,1"
       radius="0"
       unit="px"
       method="auto"
       mode="F"
       chamfer_steps="1"
       flexible="false"
       use_knot_distance="true"
       apply_no_radius="true"
       apply_with_radius="true"
       only_selected="false"
       hide_knots="false" /><inkscape:path-effect
       effect="skeletal"
       id="path-effect22"
       is_visible="true"
       lpeversion="1"
       pattern="M 0,4.9921382 C 0,2.2364779 2.2364779,0 4.9921382,0 c 2.7556604,0 4.9921383,2.2364779 4.9921383,4.9921382 0,2.7556604 -2.2364779,4.9921383 -4.9921383,4.9921383 C 2.2364779,9.9842765 0,7.7477986 0,4.9921382 Z"
       copytype="single_stretched"
       prop_scale="1"
       scale_y_rel="false"
       spacing="0"
       normal_offset="0"
       tang_offset="0"
       prop_units="false"
       vertical_pattern="false"
       hide_knot="false"
       fuse_tolerance="0" /><inkscape:path-effect
       effect="skeletal"
       id="path-effect20"
       is_visible="true"
       lpeversion="1"
       pattern="M 0,4.9921382 C 0,2.2364779 2.2364779,0 4.9921382,0 c 2.7556604,0 4.9921383,2.2364779 4.9921383,4.9921382 0,2.7556604 -2.2364779,4.9921383 -4.9921383,4.9921383 C 2.2364779,9.9842765 0,7.7477986 0,4.9921382 Z"
       copytype="single_stretched"
       prop_scale="1"
       scale_y_rel="false"
       spacing="0"
       normal_offset="0"
       tang_offset="0"
       prop_units="false"
       vertical_pattern="false"
       hide_knot="false"
       fuse_tolerance="0" /><inkscape:path-effect
       effect="bspline"
       id="path-effect19"
       is_visible="true"
       lpeversion="1.3"
       weight="33.333333"
       steps="2"
       helper_size="0"
       apply_no_weight="true"
       apply_with_weight="true"
       only_selected="false"
       uniform="false" /></defs><g
     inkscape:groupmode="layer"
     id="layer3"
     inkscape:label="ROOF"
     style="display:inline"><path
       style="display:inline;fill:#ffffff;fill-opacity:1;stroke:#000000;stroke-width:0.196631;stroke-linecap:butt;stroke-linejoin:miter;stroke-dasharray:none;stroke-opacity:1"
       d="m 5.421812,16.540937 4.5756642,-1.989914 12.1328548,4.781403 -3.685696,2.225893 z"
       id="path304-6-4-0-3-9-0"
       sodipodi:nodetypes="ccccc"
       inkscape:label="roof-1" /><path
       style="display:inline;fill:#ffffff;fill-opacity:1;stroke:#000000;stroke-width:0.196631;stroke-dasharray:none;stroke-opacity:1"
       d="m 37.095913,14.101194 -6.338844,2.520124 -5.977504,-2.500169 6.177634,-2.583878 z"
       id="path237-1-1-7-2-9-2"
       inkscape:label="roof-4"
       sodipodi:nodetypes="ccccc" /><path
       style="display:inline;fill:#ffffff;fill-opacity:1;stroke:#000000;stroke-width:0.196631;stroke-linecap:butt;stroke-linejoin:miter;stroke-dasharray:none;stroke-opacity:1"
       d="m 42.592845,16.397068 -4.770709,-1.992559 -12.401661,4.928749 3.682444,2.225784 z"
       id="path219-0-3-8-7-1-4"
       sodipodi:nodetypes="ccccc"
       inkscape:label="roof-2" /><path
       style="display:inline;fill:#ffffff;fill-opacity:1;stroke:#000000;stroke-width:0.196631;stroke-dasharray:none;stroke-opacity:1"
       d="M 17.635047,11.265209 23.77459,13.833141 30.206327,11.223653 23.77459,8.5373484 Z"
       id="path12-6-9-6-1-7-8"
       inkscape:label="roof-6"
       sodipodi:nodetypes="ccccc" /><path
       style="display:inline;fill:#ffffff;fill-opacity:1;fill-rule:nonzero;stroke:#000000;stroke-width:0.196631;stroke-dasharray:none;stroke-opacity:1"
       d="m 17.919679,16.988157 4.896846,1.929779 0.95807,-0.578678 c 0,0 1.015531,0.578678 1.015531,0.578678 l 4.940377,-1.887403 -5.955913,-2.496032 z"
       id="path306-8-8-6-0-2-39"
       inkscape:label="roof-3-mid"
       sodipodi:nodetypes="ccccccc" /><path
       style="display:inline;fill:#ffffff;fill-opacity:1;stroke:#000000;stroke-width:0.196631;stroke-dasharray:none;stroke-opacity:1"
       d="m 10.879812,14.213848 6.066433,2.390691 5.984102,-2.418273 -6.177632,-2.583882 z"
       id="path300-7-5-0-0-3-0"
       inkscape:label="roof-5"
       sodipodi:nodetypes="ccccc" /></g><g
     inkscape:groupmode="layer"
     id="layer13"
     inkscape:label="DOOR"><path
       style="display:inline;fill:#ffffff;fill-opacity:1;stroke:#000000;stroke-width:0.196631;stroke-dasharray:none;stroke-opacity:1"
       d="m 23.774596,19.295514 -5.03922,2.944946 v 21.003192 h 1.761356 c 0,0 -0.06458,-6.399105 0.05136,-9.596638 0.01936,-0.525209 0.353424,-1.189207 0.612762,-1.568289 0.424345,-0.620285 1.065687,-1.063965 1.171888,-1.120957 0.156463,-0.08396 1.267449,-0.730553 2.871314,-0.102726 0.420207,0.164494 0.882662,0.594953 1.134059,0.902696 0.60461,0.740175 0.744517,1.48338 0.793328,2.025839 0.01785,0.196442 0.01554,6.957337 0.03154,9.46005 h 1.649102 l 0.0017,-21.003198 z"
       id="path5"
       inkscape:label="door-outer" /><path
       id="path17-6-4-5-7-5-2"
       style="display:inline;fill:#ffffff;fill-opacity:1;stroke:#000000;stroke-width:0.196631;stroke-dasharray:none;stroke-opacity:1"
       d="m 23.771442,31.122751 c -0.05345,3.72e-4 -0.106434,0.0034 -0.159117,0.009 -0.89908,0.09466 -1.635102,0.62316 -2.036189,1.347882 -0.401088,0.724719 -0.467268,1.645624 -0.467268,1.645624 v 9.118361 h 5.448501 c 0,0 0.02609,-8.0533 -0.01275,-9.05742 -0.01917,-0.495042 -0.131678,-1.241378 -0.628739,-1.888362 -0.493249,-0.642093 -1.344697,-1.183217 -2.144428,-1.175174 z m 1.600817,6.612264 c 0.248868,0 0.450607,0.214748 0.450607,0.479705 0,0.264981 -0.20175,0.479729 -0.450607,0.479729 -0.248868,0 -0.450606,-0.214796 -0.450606,-0.479729 0,-0.264981 0.201749,-0.479705 0.450606,-0.479705 z"
       inkscape:label="door-inner"
       sodipodi:nodetypes="ssscccssssssss" /></g><g
     inkscape:groupmode="layer"
     id="layer14"
     inkscape:label="OUTER-ROOF"><path
       style="display:inline;fill:#ffffff;fill-opacity:1;stroke:#000000;stroke-width:0.196631;stroke-linecap:butt;stroke-linejoin:miter;stroke-dasharray:none;stroke-opacity:1"
       d="m 23.77459,7.3709455 23.238736,10.0823675 0.01913,-2.617137 -9.200255,-4.027617 -0.06159,-3.8127333 -3.318756,0.010006 0.02825,2.3353028 L 23.774433,4.6546005 0.46814063,14.836169 v 2.686938 z"
       id="path8-6-5-7-1-5-27"
       sodipodi:nodetypes="ccccccccccc"
       inkscape:label="outer-roof" /><rect
       style="display:inline;fill:#ffffff;fill-opacity:1;stroke:#000000;stroke-width:0.196631;stroke-dasharray:none;stroke-opacity:1"
       id="rect19-9-4-9-7-8-3"
       width="4.6573668"
       height="1.1113262"
       x="33.781601"
       y="5.545033"
       inkscape:label="chimney"
       transform="matrix(0.99999505,-0.0031454,0.00277525,0.99999615,0,0)" /></g><g
     inkscape:groupmode="layer"
     id="layer8"
     inkscape:label="RIGHT-H"><path
       style="display:inline;fill:#ffffff;fill-opacity:1;fill-rule:nonzero;stroke:#000000;stroke-width:0.196631;stroke-linecap:butt;stroke-linejoin:miter;stroke-dasharray:none;stroke-opacity:1"
       d="m 43.053251,16.774154 v 20.762193 l -3.711387,1.503869 v -8.965488 l -6.186027,2.262828 -3.48e-4,9.209492 -3.729373,1.511163 V 22.054462 l 3.729348,-1.44507 3.49e-4,7.475264 6.192552,-2.304348 -0.0069,-7.564478 z"
       id="path301-3-7-3-3-4-1-7"
       sodipodi:nodetypes="ccccccccccccc"
       inkscape:label="H-right" /><path
       id="path302-5-4-4-5-5-4-9"
       style="display:inline;fill:#ffffff;fill-opacity:1;stroke:#000000;stroke-width:0.196631;stroke-linecap:butt;stroke-linejoin:miter;stroke-dasharray:none;stroke-opacity:1"
       d="m 38.698887,18.461381 v 2.974688 l -2.087226,0.789368 -0.007,-2.952737 z m -2.812295,1.089718 v 2.948547 l -2.086095,0.788926 -0.0021,-2.924734 z m 2.812295,2.577788 v 2.924952 l -2.087226,0.839523 v -2.981611 z m -2.812295,1.054811 -0.0023,3.009587 -2.083975,0.731516 v -2.90566 z"
       inkscape:label="R-top-window"
       sodipodi:nodetypes="cccccccccccccccccccc" /><path
       id="path303-8-8-2-0-1-7-0"
       style="display:inline;fill:#ffffff;fill-opacity:1;stroke:#000000;stroke-width:0.196631;stroke-linecap:butt;stroke-linejoin:miter;stroke-dasharray:none;stroke-opacity:1"
       inkscape:label="R-window-frame"
       d="m 38.698887,30.933087 v 8.353729 l -4.89839,1.99621 v -8.615127 z m -0.906962,1.518464 -1.180268,0.451403 v 1.477214 l 0.54656,-0.209011 0.63369,-0.235703 z m -1.905335,0.727786 -1.159135,0.441815 -0.0087,1.493117 1.167877,-0.457104 z m 1.90533,1.462776 -1.180266,0.466943 v 1.468905 l 1.180266,-0.449176 z m -1.906836,0.753672 -1.162809,0.465007 0.0017,1.431162 1.162643,-0.440816 z m 1.906836,1.530324 -1.180266,0.461735 v 1.603147 L 37.79192,38.53325 Z m -1.90533,0.745372 -1.167723,0.456815 0.0039,1.616267 1.164304,-0.465956 z"
       sodipodi:nodetypes="cccccccccccccccccccccccccccccccccccc" /><path
       id="path24"
       style="fill:#ffffff;fill-opacity:1;stroke:#000000;stroke-width:0.196631;stroke-dasharray:none;stroke-opacity:1"
       inkscape:label="garage-door"
       d="m 9.4051477,33.291109 v 6.41492 l 8.7297893,3.350607 v -6.525907 z m 0.5812123,1.044621 3.294814,1.216328 -0.0077,1.35817 -3.2947381,-1.22949 z m 4.199371,1.539929 3.294823,1.216327 -0.0077,1.35817 -3.294746,-1.229487 z m -4.199371,0.261202 3.294814,1.216327 -0.0077,1.358165 -3.2947381,-1.229483 z m 4.199371,1.539934 3.294823,1.216312 -0.0077,1.358178 -3.294737,-1.229485 z m -4.199371,0.295902 3.294814,1.216328 -0.0077,1.358166 -3.2947381,-1.229484 z m 4.199371,1.539933 3.294823,1.216324 -0.0077,1.358171 -3.294737,-1.229494 z" /></g><g
     inkscape:groupmode="layer"
     id="layer9"
     inkscape:label="LEFT-H"><path
       id="path302-5-4-4-5-5-4-9-8-2"
       style="display:inline;fill:#ffffff;fill-opacity:1;stroke:#000000;stroke-width:0.196631;stroke-linecap:butt;stroke-linejoin:miter;stroke-dasharray:none;stroke-opacity:1"
       inkscape:label="R-top-window"
       d="m 5.0851812,17.045455 v 21.063621 l 3.6288356,1.36501 0.00879,-7.098245 9.4121382,3.540409 V 21.954165 Z m 3.6407346,4.487044 6.0088622,2.260256 v 7.115449 L 8.7259158,28.647949 Z m 0.6792347,0.874921 v 2.646998 l 1.9902005,0.788073 0.0051,-2.684536 z m 2.6815695,1.008669 v 2.700163 l 1.989117,0.787641 0.002,-2.738832 z m -2.6815701,2.317914 v 2.548425 l 1.9902011,0.746743 v -2.546548 z m 2.6815671,1.00868 v 2.548433 l 1.989109,0.748223 v -2.548452 z"
       sodipodi:nodetypes="cccccccccccccccccccccccccccccccc" /></g></svg>
